<?xml version="1.0" encoding="utf-8"?>
<!-- Generator: Adobe Illustrator 16.0.0, SVG Export Plug-In . SVG Version: 6.00 Build 0)  -->
<!DOCTYPE svg PUBLIC "-//W3C//DTD SVG 1.1//EN" "http://www.w3.org/Graphics/SVG/1.1/DTD/svg11.dtd">
<svg version="1.1" id="Layer_1" xmlns="http://www.w3.org/2000/svg" xmlns:xlink="http://www.w3.org/1999/xlink" x="0px" y="0px"
	 width="5000px" height="5000px" viewBox="0 0 5000 5000" enable-background="new 0 0 5000 5000" xml:space="preserve">
<g display="none">
	<g display="inline">
		<path fill="#EE5336" d="M2442.441,2185.1c-18.895,314.437-37.805,628.869-56.696,943.305
			c-84.979-40.755-191.321-79.465-322.752-95.75c-60.75-7.533-328.778-35.305-620.763,111.497
			c-32.83,16.512-63.612,34.034-92.393,52.175c-72.816-96.939-115.534-191.545-115.534-191.545
			c-27.104-60.045-43.77-113.457-54.241-153.686c22.646,11.39,58.221,25.914,103.964,31.642c51.196,6.403,93.266-0.95,119.028-7.533
			c-56.215-37.291-118.759-84.723-182.312-144.644c-73.753-69.535-131.882-139.854-177.294-203.814
			c-1.838-30.269-2.76-60.777-2.76-91.499c0-702.971,483.336-1293.042,1135.83-1456.008
			c-223.984,198.812-447.986,397.635-671.975,596.46c143.091,66.597,286.198,133.208,429.29,199.805
			c-29.019,28.057-58.038,56.125-87.058,84.18c-23.1,191.851-46.211,383.715-69.311,575.563
			c2.697,4.005,29.594,42.577,79.104,44.447c54.167,2.03,84.844-41.783,86.636-44.447l-31.642-528.854
			c28.102-26.578,56.187-53.156,84.302-79.734c81.647,127.769,163.267,255.566,244.915,383.336
			C2296.819,2209.463,2366.098,2203.723,2442.441,2185.1"/>
		<path fill="none" stroke="#3A2E42" stroke-width="13" stroke-miterlimit="10" d="M2442.441,2185.1
			c-18.895,314.437-37.805,628.869-56.696,943.305c-84.979-40.755-191.321-79.465-322.752-95.75
			c-60.75-7.533-328.778-35.305-620.763,111.497c-32.83,16.512-63.612,34.034-92.393,52.175
			c-72.816-96.939-115.534-191.545-115.534-191.545c-27.104-60.045-43.77-113.457-54.241-153.686
			c22.646,11.39,58.221,25.914,103.964,31.642c51.196,6.403,93.266-0.95,119.028-7.533
			c-56.215-37.291-118.759-84.723-182.312-144.644c-73.753-69.535-131.882-139.854-177.294-203.814
			c-1.838-30.269-2.76-60.777-2.76-91.499c0-702.971,483.336-1293.042,1135.83-1456.008
			c-223.984,198.812-447.986,397.635-671.975,596.46c143.091,66.597,286.198,133.208,429.29,199.805
			c-29.019,28.057-58.038,56.125-87.058,84.18c-23.1,191.851-46.211,383.715-69.311,575.563
			c2.697,4.005,29.594,42.577,79.104,44.447c54.167,2.03,84.844-41.783,86.636-44.447l-31.642-528.854
			c28.102-26.578,56.187-53.156,84.302-79.734c81.647,127.769,163.267,255.566,244.915,383.336
			C2296.819,2209.463,2366.098,2203.723,2442.441,2185.1z"/>
		<path fill="#EE5336" d="M3864.26,2730.559c-63.552,59.923-126.095,107.354-182.311,144.646
			c25.766,6.583,67.834,13.938,119.029,7.533c45.74-5.729,81.316-20.252,103.963-31.643c-10.473,40.229-27.138,93.64-54.241,153.687
			c0,0-65.181,144.367-171.765,259.152c-77.056,82.973-175.261,143.118-271.479,186.394
			c-205.666-41.252-285.839-100.949-491.669-104.277c-64.439-1.042-124.951,3.705-180.686,11.991
			c-6.823-5.997-13.74-11.979-20.776-17.915c-3.3-17.175-4.083-28.777-4.204-30.99c-24.001-399.504-48.021-799.008-72.036-1198.511
			c282.041-150.097,401.146-421.108,431.386-495.781c-28.463-47.729-56.922-95.464-85.385-143.197
			c43.289-43.617,86.563-87.252,129.833-130.888c64.759-65.255,129.501-130.525,194.229-195.78
			c224.848,133.9,411.724,324.922,540.623,553.021c-294.108,29.32-582.899,202.353-705.473,472.82
			c-4.414,9.729-8.646,19.678-12.687,29.816c-3.271,8.136-6.403,16.408-9.417,24.785
			c-90.434,250.625-72.698,603.058,145.458,764.051c95.991,70.847,205.814,86.152,283.26,87.39c-0.21-0.184-0.406-0.349-0.617-0.528
			c0.271,0,0.543,0.019,0.813,0.019c-37.098-31.658-92.21-88.205-123.551-173.271c-36.069-97.937-29.409-203.285,4.866-299.144
			c2.261-6.313,4.626-12.565,7.126-18.791c31.61-78.754,81.694-150.154,141.495-204.383
			c124.469-112.896,295.795-155.777,450.821-127.527c0.091,0.016,0.165,0.03,0.256,0.045
			c7.218,59.649,10.924,120.371,10.924,181.967c0,31.896-0.992,63.565-2.953,94.98
			C3994.033,2593.251,3936.688,2662.289,3864.26,2730.559"/>
		<path fill="none" stroke="#3A2E42" stroke-width="13" stroke-miterlimit="10" d="M3864.26,2730.559
			c-63.552,59.923-126.095,107.354-182.311,144.646c25.766,6.583,67.834,13.938,119.029,7.533
			c45.74-5.729,81.316-20.252,103.963-31.643c-10.473,40.229-27.138,93.64-54.241,153.687c0,0-65.181,144.367-171.765,259.152
			c-77.056,82.973-175.261,143.118-271.479,186.394c-205.666-41.252-285.839-100.949-491.669-104.277
			c-64.439-1.042-124.951,3.705-180.686,11.991c-6.823-5.997-13.74-11.979-20.776-17.915c-3.3-17.175-4.083-28.777-4.204-30.99
			c-24.001-399.504-48.021-799.008-72.036-1198.511c282.041-150.097,401.146-421.108,431.386-495.781
			c-28.463-47.729-56.922-95.464-85.385-143.197c43.289-43.617,86.563-87.252,129.833-130.888
			c64.759-65.255,129.501-130.525,194.229-195.78c224.848,133.9,411.724,324.922,540.623,553.021
			c-294.108,29.32-582.899,202.353-705.473,472.82c-4.414,9.729-8.646,19.678-12.687,29.816c-3.271,8.136-6.403,16.408-9.417,24.785
			c-90.434,250.625-72.698,603.058,145.458,764.051c95.991,70.847,205.814,86.152,283.26,87.39c-0.21-0.184-0.406-0.349-0.617-0.528
			c0.271,0,0.543,0.019,0.813,0.019c-37.098-31.658-92.21-88.205-123.551-173.271c-36.069-97.937-29.409-203.285,4.866-299.144
			c2.261-6.313,4.626-12.565,7.126-18.791c31.61-78.754,81.694-150.154,141.495-204.383
			c124.469-112.896,295.795-155.777,450.821-127.527c0.091,0.016,0.165,0.03,0.256,0.045
			c7.218,59.649,10.924,120.371,10.924,181.967c0,31.896-0.992,63.565-2.953,94.98
			C3994.033,2593.251,3936.688,2662.289,3864.26,2730.559z"/>
	</g>
	<g display="inline">
		<path fill="#FE7B21" d="M2549.725,1202.174c-679.854,0-1230.979,551.123-1230.979,1230.979
			c0,679.856,551.123,1230.979,1230.979,1230.979c679.856,0,1230.979-551.122,1230.979-1230.979
			C3780.703,1753.297,3229.58,1202.174,2549.725,1202.174 M2549.725,3374.843c-520.086,0-941.689-421.604-941.689-941.688
			s421.604-941.69,941.689-941.69c520.084,0,941.69,421.606,941.69,941.69S3069.809,3374.843,2549.725,3374.843"/>
		<path fill="#FFA92B" d="M2549.725,1491.462c-520.086,0-941.689,421.606-941.689,941.69s421.604,941.688,941.689,941.688
			c520.084,0,941.69-421.604,941.69-941.688S3069.809,1491.462,2549.725,1491.462 M2549.725,3081.035
			c-357.813,0-647.884-290.07-647.884-647.883c0-357.813,290.07-647.885,647.884-647.885c357.814,0,647.885,290.07,647.885,647.885
			C3197.607,2790.965,2907.537,3081.035,2549.725,3081.035"/>
		<path fill="#FFE8A4" d="M3197.607,2433.152c0,357.813-290.07,647.883-647.885,647.883c-357.813,0-647.884-290.07-647.884-647.883
			c0-357.813,290.071-647.883,647.884-647.883C2907.537,1785.27,3197.607,2075.34,3197.607,2433.152"/>
	</g>
	<g display="inline">
		<g>
			<g>
				<defs>
					<path id="SVGID_1_" d="M1066.371,3450.932c-161.428,205.453-209.491,414.871-226.005,516.801
						c51.998-62.877,144.778-157.223,286.272-218.474c128.612-55.655,248.714-62.843,371.978-52.793
						c-146.063-117.192-243.802-257.196-308.317-379.299C1137.157,3365.923,1096.267,3412.857,1066.371,3450.932"/>
				</defs>
				<clipPath id="SVGID_2_">
					<use xlink:href="#SVGID_1_"  overflow="visible"/>
				</clipPath>
				
					<linearGradient id="SVGID_3_" gradientUnits="userSpaceOnUse" x1="3529.5977" y1="6009.0859" x2="3531.1045" y2="6009.0859" gradientTransform="matrix(436.88 0 0 -436.88 -1541170.25 2628892)">
					<stop  offset="0" style="stop-color:#3A2E42"/>
					<stop  offset="1" style="stop-color:#2BB5B4"/>
				</linearGradient>
				<rect x="840.366" y="3317.167" clip-path="url(#SVGID_2_)" fill="url(#SVGID_3_)" width="658.25" height="650.563"/>
			</g>
		</g>
	</g>
	<g display="inline">
		<path fill="none" stroke="#3A2E42" stroke-width="40" stroke-miterlimit="10" d="M1498.616,3696.466
			c-123.266-10.05-243.363-2.862-371.978,52.793c-141.495,61.249-234.277,155.597-286.272,218.474
			c16.514-101.93,64.577-311.348,226.006-516.801c29.893-38.074,70.785-85.009,123.927-133.765
			C1254.814,3439.27,1352.556,3579.271,1498.616,3696.466z"/>
		<path fill="none" stroke="#000000" stroke-width="14" stroke-miterlimit="10" d="M2385.057,3127.819
			c-3.617,60.239-7.248,120.489-10.863,180.729c-0.45,8.572-10.907,158.054-138.615,226.007
			c-86.518,46.03-171.78,25.344-192.858,19.586c-32.757-4.064-419.588-56.289-637.337-290.793
			c-20.296-21.861-39.1-44.795-56.229-67.604c28.776-18.145,59.561-35.664,92.392-52.179
			c291.983-146.795,560.012-119.03,620.763-111.496C2193.734,3048.355,2300.077,3087.063,2385.057,3127.819z"/>
	</g>
	<g display="inline">
		<g>
			<g>
				<defs>
					<path id="SVGID_4_" d="M3022.83,3963.968c-61.037,19.134-133.104,53.108-212.296,115.866
						c-34.32,27.177-69.985,59.771-106.658,98.898c34.697,20.563,74.565,41.252,125.343,63.22
						c211.257,91.411,404.354,115.565,531.866,122.043c-82.87,22.601-209.599,46.92-360.103,31.642
						c-152.764-15.502-252.389-63.93-375.292-125.026c-27.45,35.306-55.324,74.435-83.5,117.841
						c-0.122,0.193-0.257,0.396-0.376,0.589c-0.121-0.192-0.255-0.396-0.377-0.589c-67.034-103.271-132.366-182.4-194.396-243.168
						c-42.505-16.076-88.879-32.15-140.093-47.975c-186.063-57.464-281.677-85.698-408.317-61.773
						c-208.588,39.419-346.193,190.223-412.837,277.232c104.896-15.729,261.564-26.486,439.958,15.066
						c359.895,83.834,463.899,300.395,791.021,458.039c400.104,192.811,796.729,134.956,867.861,123.55
						c404.102-64.817,858.974-323.821,1036.611-753.351c37.486-90.646,55.436-171.481,64.79-229.021
						c-57.51,70.862-249.813,289.122-563.508,335.995c-234.687,35.078-476.708-34.834-677.339-185.233
						c-61.629-46.194-119.334-99.97-171.722-160.646C3104.373,3941.997,3057.153,3953.206,3022.83,3963.968"/>
				</defs>
				<clipPath id="SVGID_5_">
					<use xlink:href="#SVGID_4_"  overflow="visible"/>
				</clipPath>
				
					<linearGradient id="SVGID_6_" gradientUnits="userSpaceOnUse" x1="3538.7402" y1="6001.7334" x2="3540.2471" y2="6001.7334" gradientTransform="matrix(2124 0 0 -2124 -7514899.5 12752128)">
					<stop  offset="0" style="stop-color:#3A2E42"/>
					<stop  offset="1" style="stop-color:#2BB5B4"/>
				</linearGradient>
				<rect x="1385.794" y="3917.169" clip-path="url(#SVGID_5_)" fill="url(#SVGID_6_)" width="3200.243" height="1061.515"/>
			</g>
		</g>
	</g>
	<g display="inline">
		<path fill="none" stroke="#3A2E42" stroke-width="40" stroke-miterlimit="10" d="M4586.037,3927.051
			c-9.355,57.54-27.302,138.375-64.789,229.02c-177.641,429.531-632.514,688.535-1036.613,753.354
			c-71.131,11.405-467.757,69.265-867.861-123.55c-327.121-157.646-431.129-374.205-791.021-458.039
			c-178.396-41.557-335.063-30.796-439.958-15.064c66.643-87.015,204.249-237.818,412.837-277.234
			c126.64-23.925,222.254,4.309,408.317,61.775c51.214,15.818,97.59,31.896,140.094,47.973
			c62.031,60.766,127.361,139.896,194.396,243.168c0.121,0.193,0.257,0.393,0.377,0.589c0.121-0.196,0.257-0.396,0.377-0.589
			c28.176-43.408,56.05-82.536,83.502-117.841c122.9,61.099,222.522,109.524,375.289,125.026
			c150.507,15.278,277.233-9.039,360.104-31.642c-127.512-6.479-320.611-30.632-531.866-122.043
			c-50.776-21.968-90.645-42.655-125.343-63.222c36.673-39.131,72.337-71.722,106.658-98.899
			c79.193-62.755,151.259-96.729,212.296-115.866c34.323-10.759,81.543-21.968,150.641-46.799
			c52.388,60.677,110.095,114.45,171.72,160.646c200.633,150.398,442.654,220.313,677.341,185.232
			C4336.227,4216.173,4528.525,3997.913,4586.037,3927.051z"/>
		<path fill="none" stroke="#000000" stroke-width="14" stroke-miterlimit="10" d="M2925.768,3560.485
			c-24.559-3.92-51.076-11.753-77.716-25.934c-94.741-50.412-124.95-145.683-134.413-195.013
			c7.036,5.938,13.952,11.918,20.777,17.916C2810.867,3424.67,2874.059,3494.432,2925.768,3560.485z"/>
		<path fill="none" stroke="#000000" stroke-width="14" stroke-miterlimit="10" d="M3406.77,3449.742
			c-175.696,79.041-344.689,101.774-365.857,104.396c-14.584,3.979-59.921,15.114-115.145,6.346
			c-51.709-66.055-114.898-135.814-191.352-203.027c55.732-8.287,116.243-13.034,180.686-11.995
			C3120.931,3348.793,3201.104,3408.487,3406.77,3449.742z"/>
	</g>
	<g display="inline">
		<g>
			<g>
				<defs>
					<path id="SVGID_7_" d="M3847.887,1697.927c-294.109,29.321-582.883,202.353-705.47,472.817
						c-4.339,9.568-8.497,19.348-12.49,29.306c-3.269,8.138-6.403,16.408-9.417,24.787
						c-90.432,250.624-72.699,603.058,145.459,764.048c95.99,70.845,205.813,86.153,283.26,87.389
						c-0.211-0.18-0.406-0.344-0.618-0.524c-37.079-31.763-91.741-88.145-122.933-172.744
						c-36.131-98.116-29.381-203.661,5.063-299.652c2.26-6.313,4.624-12.563,7.126-18.784
						c31.609-78.76,81.691-150.161,141.493-204.39c124.471-112.896,295.797-155.774,450.823-127.523
						c0.09,0.015,0.164,0.028,0.256,0.045c29.169,5.314,57.738,13.153,85.31,23.518c31.655,11.89,60.888,26.7,87.797,43.938
						c0.073,0.045,0.165,0.104,0.239,0.146c199.881,128.146,271.645,390.346,255.492,588.729
						c-19.24,236.521-170.092,425.297-337.502,516.8c-108.935,59.545-217.854,74.07-341.42,69.323
						c-60.812,80.157-136.93,159.926-231.883,229.758c-131.188,96.506-266.747,150.792-331.476,176.285
						c-15.31,6.024-29.695,11.436-43.243,16.306c-0.164,0.061-0.314,0.121-0.48,0.18c52.39,60.676,110.108,114.448,171.721,160.646
						c0.331,0.024,0.66,0.056,1.01,0.085c215.91,19.679,540.788,2.552,855.627-196.052
						c42.172-26.595,636.809-415.896,620.762-1101.401c-8.676-370.918-198.896-945.546-694.592-1065.239
						c-29.828-7.202-60.178-12.626-90.883-16.303c-33.179-3.979-66.729-5.934-100.433-5.934
						C3907.01,1693.485,3877.418,1694.98,3847.887,1697.927"/>
				</defs>
				<clipPath id="SVGID_8_">
					<use xlink:href="#SVGID_7_"  overflow="visible"/>
				</clipPath>
				
					<linearGradient id="SVGID_9_" gradientUnits="userSpaceOnUse" x1="3537.3643" y1="6003.623" x2="3538.8704" y2="6003.623" gradientTransform="matrix(1163.8059 0 0 -1163.8059 -4113736.25 6989948.5)">
					<stop  offset="0" style="stop-color:#3A2E42"/>
					<stop  offset="1" style="stop-color:#2BB5B4"/>
				</linearGradient>
				<rect x="3030.078" y="1693.483" clip-path="url(#SVGID_8_)" fill="url(#SVGID_9_)" width="1808.359" height="2404.605"/>
			</g>
		</g>
	</g>
	<g display="inline">
		<path fill="none" stroke="#3A2E42" stroke-width="40" stroke-miterlimit="10" d="M4201.631,3882.361
			c-314.841,198.6-639.717,215.729-855.627,196.055c-0.348-0.033-0.679-0.063-1.01-0.092
			c-61.61-46.195-119.331-99.969-171.721-160.646c0.166-0.062,0.316-0.121,0.48-0.183c13.546-4.867,27.938-10.276,43.243-16.305
			c64.729-25.491,200.284-79.777,331.476-176.283c94.953-69.835,171.071-149.6,231.883-229.76
			c123.564,4.748,232.484-9.776,341.42-69.321c167.41-91.503,318.262-280.276,337.502-516.802
			c16.15-198.388-55.611-460.582-255.492-588.729c-0.074-0.044-0.166-0.105-0.239-0.15c-26.911-17.233-56.142-32.047-87.797-43.936
			c-27.572-10.366-56.142-18.201-85.31-23.52c-0.094-0.018-0.166-0.03-0.258-0.045c-155.025-28.252-326.353,14.629-450.82,127.525
			c-59.803,54.229-109.887,125.63-141.494,204.384c-2.502,6.227-4.866,12.477-7.126,18.791
			c-34.444,95.99-41.193,201.535-5.063,299.651c31.189,84.604,85.854,140.982,122.932,172.744c0.211,0.18,0.408,0.347,0.618,0.525
			c-77.444-1.234-187.269-16.545-283.261-87.39c-218.156-160.991-235.889-513.424-145.457-764.049
			c3.014-8.378,6.146-16.649,9.417-24.786c3.993-9.96,8.151-19.736,12.49-29.306c122.587-270.468,411.362-443.498,705.47-472.819
			c63.296-6.313,126.834-5.966,189.031,1.492c30.706,3.677,61.053,9.1,90.885,16.303
			c495.689,119.692,685.912,694.32,694.592,1065.239C4838.439,3466.467,4243.803,3855.768,4201.631,3882.361z"/>
	</g>
	<g display="inline">
		<path fill="none" stroke="#3A2E42" stroke-width="13" stroke-miterlimit="10" d="M1776.784,2434.659
			c23.098-191.849,46.21-383.714,69.309-575.563c29.021-28.055,58.037-56.125,87.058-84.18l41.768,19.437
			c6.75,10.577,13.516,21.142,20.268,31.718c-28.115,26.578-56.201,53.155-84.303,79.733l31.643,528.854
			c-1.795,2.666-32.471,46.48-86.638,44.447C1806.375,2477.238,1779.48,2438.667,1776.784,2434.659z"/>
		<path fill="none" stroke="#3A2E42" stroke-width="13" stroke-miterlimit="10" d="M2385.057,3127.819
			c-3.617,60.239-7.248,120.489-10.863,180.729c-0.45,8.572-10.907,158.054-138.615,226.007
			c-86.518,46.03-171.78,25.344-192.858,19.586c-32.757-4.064-419.588-56.289-637.337-290.793
			c-20.296-21.861-39.1-44.795-56.229-67.604c28.776-18.145,59.561-35.664,92.392-52.179
			c291.983-146.795,560.012-119.03,620.763-111.496C2193.734,3048.355,2300.077,3087.063,2385.057,3127.819z"/>
		<path fill="none" stroke="#3A2E42" stroke-width="13" stroke-miterlimit="10" d="M3548.609,3075.747
			c0.211,0.18,0.406,0.345,0.616,0.526c-77.444-1.235-187.269-16.545-283.261-87.391
			c-218.156-160.99-235.889-513.424-145.457-764.049c-90.207,250.596-72.354,602.646,145.653,763.537
			C3361.824,3058.977,3471.195,3074.42,3548.609,3075.747z"/>
		<path fill="none" stroke="#3A2E42" stroke-width="13" stroke-miterlimit="10" d="M2915.102,3345.462
			c205.83,3.331,286.002,63.024,491.668,104.28c-175.696,79.041-344.688,101.774-365.857,104.396
			c-14.584,3.979-59.921,15.114-115.145,6.346c-24.561-3.92-51.076-11.752-77.716-25.933
			c-94.741-50.413-124.95-145.683-134.413-195.013c7.036,5.938,13.952,11.918,20.777,17.916
			C2790.148,3349.17,2850.659,3344.423,2915.102,3345.462z"/>
		<path fill="none" stroke="#3A2E42" stroke-width="13" stroke-miterlimit="10" d="M4030.439,2252.694
			c-0.094-0.015-0.166-0.03-0.258-0.045c-155.025-28.251-326.353,14.63-450.82,127.526
			c-59.803,54.228-109.887,125.631-141.494,204.385c31.595-78.967,81.77-150.549,141.688-204.896
			c124.47-112.896,295.782-155.777,450.821-127.524C4030.395,2252.316,4030.425,2252.514,4030.439,2252.694z"/>
		<path fill="#3A2E42" d="M4143.563,2893.571c-1.324,98.991-11.404,186.122-23.852,258.278
			c-5.107-32.196-13.289-69.246-26.563-109.207c-6.088-18.289-13.244-37.199-21.651-56.53c-11.933-27.405-24.8-52.011-37.668-73.828
			c-5.8,31.927-15.504,78.74-31.642,134.097c-19.724,67.637-78.031,259.004-221.649,448.26
			c-60.812,80.158-136.916,159.925-231.868,229.76c-131.188,96.506-266.747,150.791-331.475,176.283
			c-15.49,6.104-30.043,11.558-43.727,16.482c-69.098,24.831-116.315,36.04-150.641,46.799
			c-61.037,19.137-133.104,53.111-212.296,115.866c-34.321,27.181-69.985,59.771-106.658,98.901
			c-25.601,27.313-51.696,57.811-78.185,91.875c-27.451,35.306-55.325,74.434-83.502,117.842c-0.121,0.192-0.257,0.392-0.377,0.588
			c-0.121-0.196-0.256-0.396-0.377-0.588c-67.032-103.271-132.362-182.402-194.396-243.168
			c-24.951-24.471-49.375-45.939-73.166-64.832c-79.493-63.146-151.83-97.289-213.078-116.484
			c-41.118-12.898-100.783-26.426-194.365-63.281c-64.728-25.494-200.284-79.779-331.475-176.285
			c-12.431-9.146-24.545-18.472-36.343-27.933c-146.062-117.193-243.801-257.196-308.316-379.299
			c-64.08-121.169-95.42-224.696-108.859-270.786c-16.137-55.355-25.84-102.17-31.641-134.097
			c-12.868,21.815-25.735,46.423-37.668,73.827c-9.055,20.822-16.664,41.148-23.038,60.752
			c-12.459,38.345-20.25,73.92-25.177,104.985c-11.979-69.442-21.772-152.767-23.67-247.174
			c-0.844-41.603-0.137-85.341,2.576-131.01c7.459-125.327,28.312-233.689,51.229-320.929c14.313,23.144,30.48,47.777,48.712,73.422
			c45.412,63.959,103.54,134.275,177.294,203.813c63.553,59.921,126.096,107.354,182.313,144.645
			c-25.767,6.586-67.831,13.938-119.029,7.533c-45.743-5.725-81.316-20.25-103.963-31.641
			c10.472,40.229,27.137,93.642,54.241,153.684c0,0,42.716,94.607,115.534,191.551c17.131,22.81,35.936,45.74,56.229,67.604
			c217.749,234.505,604.58,286.729,637.337,290.794c21.079,5.756,106.343,26.444,192.857-19.587
			c127.707-67.952,138.164-217.434,138.616-226.006c3.615-60.239,7.247-120.489,10.863-180.729
			c18.894-314.437,37.803-628.868,56.696-943.303c39.175-9.553,80.218-22.511,122.285-39.897
			c25.599-10.575,50.037-22.164,73.358-34.58c24.019,399.504,48.035,799.006,72.037,1198.511c0.12,2.216,0.902,13.814,4.203,30.991
			c9.463,49.33,39.672,144.602,134.413,195.015c26.638,14.179,53.156,22.012,77.716,25.932c55.223,8.771,100.56-2.366,115.144-6.345
			c21.17-2.622,190.161-25.357,365.858-104.398c96.218-43.271,194.425-103.421,271.479-186.396
			c106.584-114.78,171.765-259.153,171.765-259.153c27.104-60.042,43.771-113.453,54.241-153.686
			c-22.646,11.393-58.221,25.916-103.963,31.643c-51.198,6.403-93.267-0.948-119.03-7.534
			c56.218-37.291,118.761-84.723,182.313-144.644c72.429-68.271,129.771-137.307,174.839-200.33
			c19.211-26.896,36.207-52.704,51.168-76.903c22.916,87.238,43.771,195.603,51.229,320.928
			C4143.277,2815.284,4144.074,2855.314,4143.563,2893.571"/>
		<path fill="none" stroke="#3A2E42" stroke-width="40" stroke-miterlimit="10" d="M4143.563,2893.571
			c-1.324,98.991-11.404,186.122-23.852,258.278c-5.107-32.196-13.289-69.246-26.563-109.207
			c-6.088-18.289-13.244-37.199-21.651-56.53c-11.933-27.405-24.8-52.011-37.668-73.828c-5.8,31.927-15.504,78.74-31.642,134.097
			c-19.724,67.637-78.031,259.004-221.649,448.26c-60.812,80.158-136.916,159.925-231.868,229.76
			c-131.188,96.506-266.747,150.791-331.475,176.283c-15.49,6.104-30.043,11.558-43.727,16.482
			c-69.098,24.831-116.315,36.04-150.641,46.799c-61.037,19.137-133.104,53.111-212.296,115.866
			c-34.321,27.181-69.985,59.771-106.658,98.901c-25.601,27.313-51.696,57.811-78.185,91.875
			c-27.451,35.306-55.325,74.434-83.502,117.842c-0.121,0.192-0.257,0.392-0.377,0.588c-0.121-0.196-0.256-0.396-0.377-0.588
			c-67.032-103.271-132.362-182.402-194.396-243.168c-24.951-24.471-49.375-45.939-73.166-64.832
			c-79.493-63.146-151.83-97.289-213.078-116.484c-41.118-12.898-100.783-26.426-194.365-63.281
			c-64.728-25.494-200.284-79.779-331.475-176.285c-12.431-9.146-24.545-18.472-36.343-27.933
			c-146.062-117.193-243.801-257.196-308.316-379.299c-64.08-121.169-95.42-224.696-108.859-270.786
			c-16.137-55.355-25.84-102.17-31.641-134.097c-12.868,21.815-25.735,46.423-37.668,73.827
			c-9.055,20.822-16.664,41.148-23.038,60.752c-12.459,38.345-20.25,73.92-25.177,104.985
			c-11.979-69.442-21.772-152.767-23.67-247.174c-0.844-41.603-0.137-85.341,2.576-131.01
			c7.459-125.327,28.312-233.689,51.229-320.929c14.313,23.144,30.48,47.777,48.712,73.422
			c45.412,63.959,103.54,134.275,177.294,203.813c63.553,59.921,126.096,107.354,182.313,144.645
			c-25.767,6.586-67.831,13.938-119.029,7.533c-45.743-5.725-81.316-20.25-103.963-31.641
			c10.472,40.229,27.137,93.642,54.241,153.684c0,0,42.716,94.607,115.534,191.551c17.131,22.81,35.936,45.74,56.229,67.604
			c217.749,234.505,604.58,286.729,637.337,290.794c21.079,5.756,106.343,26.444,192.857-19.587
			c127.707-67.952,138.164-217.434,138.616-226.006c3.615-60.239,7.247-120.489,10.863-180.729
			c18.894-314.437,37.803-628.868,56.696-943.303c39.175-9.553,80.218-22.511,122.285-39.897
			c25.599-10.575,50.037-22.164,73.358-34.58c24.019,399.504,48.035,799.006,72.037,1198.511c0.12,2.216,0.902,13.814,4.203,30.991
			c9.463,49.33,39.672,144.602,134.413,195.015c26.638,14.179,53.156,22.012,77.716,25.932c55.223,8.771,100.56-2.366,115.144-6.345
			c21.17-2.622,190.161-25.357,365.858-104.398c96.218-43.271,194.425-103.421,271.479-186.396
			c106.584-114.78,171.765-259.153,171.765-259.153c27.104-60.042,43.771-113.453,54.241-153.686
			c-22.646,11.393-58.221,25.916-103.963,31.643c-51.198,6.403-93.267-0.948-119.03-7.534
			c56.218-37.291,118.761-84.723,182.313-144.644c72.429-68.271,129.771-137.307,174.839-200.33
			c19.211-26.896,36.207-52.704,51.168-76.903c22.916,87.238,43.771,195.603,51.229,320.928
			C4143.277,2815.284,4144.074,2855.314,4143.563,2893.571z"/>
		<path fill="none" stroke="#3A2E42" stroke-width="13" stroke-miterlimit="10" d="M2541.814,4389.038
			c-0.121,0.194-0.258,0.377-0.377,0.571v-1.16C2541.559,4388.645,2541.693,4388.841,2541.814,4389.038z"/>
		<path fill="none" stroke="#3A2E42" stroke-width="13" stroke-miterlimit="10" d="M2542.189,4388.449v1.16
			c-0.119-0.193-0.257-0.377-0.375-0.57C2541.936,4388.841,2542.07,4388.645,2542.189,4388.449z"/>
		<path fill="#534741" d="M3334.191,1117.452c-8.905,8.979-17.813,17.96-26.729,26.938
			c-64.728,65.256-129.471,130.525-194.229,195.78c-43.271,43.634-86.545,87.271-129.832,130.89
			c-179.299,180.773-358.597,361.532-537.925,542.293c-74.114-34.487-148.243-68.991-222.375-103.494
			c-70.71-32.907-141.421-65.814-212.128-98.723c104.881-99.216,209.777-198.445,314.675-297.663
			c9.086-8.589,18.155-17.178,27.239-25.766c-8.225-4.46-15.307-10.427-20.911-17.9c-14.522-19.346-16.589-45.381-8.241-72.563
			c-18.805,18.188-37.606,36.372-56.41,54.543c-111.391,107.715-222.781,215.43-334.174,323.128
			c-143.092-66.596-286.196-133.207-429.291-199.804c223.987-198.825,447.99-397.65,671.979-596.46
			c68.374-60.705,136.747-121.396,205.122-182.086l636.207,214.164C3122.83,1046.305,3228.51,1081.879,3334.191,1117.452"/>
		<path fill="none" stroke="#3A2E42" stroke-width="40" stroke-miterlimit="10" d="M3334.191,1117.452
			c-8.905,8.979-17.813,17.96-26.729,26.938c-64.728,65.256-129.471,130.525-194.229,195.78
			c-43.271,43.634-86.545,87.271-129.832,130.89c-179.299,180.773-358.597,361.532-537.925,542.293
			c-74.114-34.487-148.243-68.991-222.375-103.494c-70.71-32.907-141.421-65.814-212.128-98.723
			c104.881-99.216,209.777-198.445,314.675-297.663c9.086-8.589,18.155-17.178,27.239-25.766c-8.225-4.46-15.307-10.427-20.911-17.9
			c-14.522-19.346-16.589-45.381-8.241-72.563c-18.805,18.188-37.606,36.372-56.41,54.543
			c-111.391,107.715-222.781,215.43-334.174,323.128c-143.092-66.596-286.196-133.207-429.291-199.804
			c223.987-198.825,447.99-397.65,671.979-596.46c68.374-60.705,136.747-121.396,205.122-182.086l636.207,214.164
			C3122.83,1046.305,3228.51,1081.879,3334.191,1117.452z"/>
		<path fill="#534741" d="M3068.784,1614.258c-30.24,74.673-149.345,345.686-431.386,495.781
			c-23.322,12.416-47.764,24.003-73.36,34.579c-42.067,17.388-83.11,30.346-122.285,39.897
			c-76.345,18.623-145.622,24.362-201.657,24.892c-81.646-127.769-163.267-255.568-244.914-383.337
			c-6.751-10.576-13.516-21.139-20.266-31.716c12.023,5.59,24.031,11.18,36.055,16.784c70.71,32.904,141.42,65.813,212.129,98.721
			c74.131,34.503,148.262,69.007,222.375,103.495c179.329-180.761,358.627-361.521,537.926-542.294
			C3011.86,1518.793,3040.322,1566.526,3068.784,1614.258"/>
		<path fill="none" stroke="#3A2E42" stroke-width="40" stroke-miterlimit="10" d="M3068.784,1614.258
			c-30.24,74.673-149.345,345.686-431.386,495.781c-23.322,12.416-47.764,24.003-73.36,34.579
			c-42.067,17.388-83.11,30.346-122.285,39.897c-76.345,18.623-145.622,24.362-201.657,24.892
			c-81.646-127.769-163.267-255.568-244.914-383.337c-6.751-10.576-13.516-21.139-20.266-31.716
			c12.023,5.59,24.031,11.18,36.055,16.784c70.71,32.904,141.42,65.813,212.129,98.721
			c74.131,34.503,148.262,69.007,222.375,103.495c179.329-180.761,358.627-361.521,537.926-542.294
			C3011.86,1518.793,3040.322,1566.526,3068.784,1614.258z"/>
		<path fill="#FFFFFF" d="M2491.071,1469.913c-63.88,47.957-138.579,60.817-184.272,35.845c-9.962-5.4-18.533-12.623-25.32-21.671
			c-17.584-23.422-20.082-54.943-9.978-87.851v-0.021c11.711-38.104,40.369-78.091,82.123-109.429
			c22.527-16.909,46.387-29.442,69.846-37.505c54.65-18.771,107.113-13.262,135.386,18.06c1.533,1.696,2.978,3.446,4.361,5.29
			C2601.178,1323.197,2568.871,1411.521,2491.071,1469.913"/>
		<path fill="none" stroke="#3A2E42" stroke-width="48.427" stroke-miterlimit="10" d="M2491.071,1469.913
			c-63.88,47.957-138.579,60.817-184.272,35.845c-9.962-5.4-18.533-12.623-25.32-21.671c-17.584-23.422-20.082-54.943-9.978-87.851
			v-0.021c11.711-38.104,40.369-78.091,82.123-109.429c22.527-16.909,46.387-29.442,69.846-37.505
			c54.65-18.771,107.113-13.262,135.386,18.06c1.533,1.696,2.978,3.446,4.361,5.29
			C2601.178,1323.197,2568.871,1411.521,2491.071,1469.913z"/>
		<path fill="#3A2E42" d="M2352.888,1487.71c-9.085,8.589-18.155,17.177-27.241,25.765
			c-104.896,99.219-209.793,198.448-314.676,297.665c-12.021-5.604-24.031-11.193-36.055-16.784
			c6.749,10.576,13.515,21.141,20.265,31.717c-28.114,26.578-56.2,53.155-84.3,79.733l31.641,528.854
			c-1.793,2.666-32.47,46.479-86.636,44.447c-49.511-1.868-76.403-40.439-79.103-44.447
			c23.099-191.848,46.211-383.713,69.31-575.563c29.019-28.056,58.037-56.125,87.058-84.18
			c111.393-107.699,222.78-215.414,334.172-323.129c18.806-18.171,37.607-36.356,56.411-54.542
			c-8.348,27.181-6.282,53.216,8.241,72.563C2337.579,1477.284,2344.66,1483.25,2352.888,1487.71"/>
		<path fill="none" stroke="#3A2E42" stroke-width="40" stroke-miterlimit="10" d="M2352.888,1487.71
			c-9.085,8.589-18.155,17.177-27.241,25.765c-104.896,99.219-209.793,198.448-314.676,297.665
			c-12.021-5.604-24.031-11.193-36.055-16.784c6.749,10.576,13.515,21.141,20.265,31.717c-28.114,26.578-56.2,53.155-84.3,79.733
			l31.641,528.854c-1.793,2.666-32.47,46.479-86.636,44.447c-49.511-1.868-76.403-40.439-79.103-44.447
			c23.099-191.848,46.211-383.713,69.31-575.563c29.019-28.056,58.037-56.125,87.058-84.18
			c111.393-107.699,222.78-215.414,334.172-323.129c18.806-18.171,37.607-36.356,56.411-54.542
			c-8.348,27.181-6.282,53.216,8.241,72.563C2337.579,1477.284,2344.66,1483.25,2352.888,1487.71z"/>
		<path fill="none" stroke="#3A2E42" stroke-width="40" stroke-miterlimit="10" d="M2010.973,1811.139
			c-5.26,4.975-10.533,9.96-15.791,14.934c-6.75-10.576-13.516-21.141-20.266-31.716
			C1986.939,1799.944,1998.948,1805.534,2010.973,1811.139z"/>
		<path fill="#3A2E42" d="M4037.113,1698.905c-62.195-7.458-125.733-7.808-189.031-1.491
			c-128.898-228.101-315.773-419.12-540.62-553.021c8.919-8.979,17.824-17.959,26.729-26.938
			c-105.684-35.574-211.363-71.146-317.026-106.721L2380.959,796.57c-68.376,60.688-136.75,121.38-205.124,182.085
			c-652.494,162.966-1135.831,753.037-1135.831,1456.005c0,30.723,0.92,61.232,2.758,91.502
			c-18.229-25.645-34.396-50.279-48.712-73.422c-22.917,87.238-43.769,195.602-51.228,320.928
			c-2.711,45.669-3.422,89.408-2.576,131.01c-43.786-149.181-67.275-307.053-67.275-470.395
			c0-436.778,167.953-834.322,442.791-1131.596c0.663,1.115,1.341,2.229,2.004,3.345c2.262-2.485,4.535-4.987,6.825-7.473
			c16.438-17.932,33.358-35.604,50.716-52.962l0.286-0.271c19.92-19.936,40.229-39.25,60.9-57.934
			c-0.662-0.331-1.311-0.68-1.974-1.024c274.867-243.755,630.856-398.087,1022.344-417.373c0.515-0.029,1.011-0.045,1.522-0.075
			c0,0.03-0.019,0.046-0.019,0.075c3.36-0.165,6.736-0.315,10.111-0.467c15.82-0.678,31.7-1.146,47.646-1.401
			c5.48-0.074,10.967-0.12,16.466-0.148c3.073-0.017,6.134-0.029,9.206-0.029h0.393c3.015,0,6.043,0.015,9.057,0.029
			c6.162,0.028,12.31,0.104,18.439,0.211c18.412,0.332,36.766,0.947,55.024,1.867
			C3245.625,800.004,3777.086,1170.624,4037.113,1698.905"/>
		<path fill="none" stroke="#3A2E42" stroke-width="13" stroke-miterlimit="10" d="M4037.113,1698.905
			c-62.195-7.458-125.733-7.808-189.031-1.491c-128.898-228.101-315.773-419.12-540.62-553.021
			c8.919-8.979,17.824-17.959,26.729-26.938c-105.684-35.574-211.363-71.146-317.026-106.721L2380.959,796.57
			c-68.376,60.688-136.75,121.38-205.124,182.085c-652.494,162.966-1135.831,753.037-1135.831,1456.005
			c0,30.723,0.92,61.232,2.758,91.502c-18.229-25.645-34.396-50.279-48.712-73.422c-22.917,87.238-43.769,195.602-51.228,320.928
			c-2.711,45.669-3.422,89.408-2.576,131.01c-43.786-149.181-67.275-307.053-67.275-470.395
			c0-436.778,167.953-834.322,442.791-1131.596c0.663,1.115,1.341,2.229,2.004,3.345c2.262-2.485,4.535-4.987,6.825-7.473
			c16.438-17.932,33.358-35.604,50.716-52.962l0.286-0.271c19.92-19.936,40.229-39.25,60.9-57.934
			c-0.662-0.331-1.311-0.68-1.974-1.024c274.867-243.755,630.856-398.087,1022.344-417.373c0.515-0.029,1.011-0.045,1.522-0.075
			c0,0.03-0.019,0.046-0.019,0.075c3.36-0.165,6.736-0.315,10.111-0.467c15.82-0.678,31.7-1.146,47.646-1.401
			c5.48-0.074,10.967-0.12,16.466-0.148c3.073-0.017,6.134-0.029,9.206-0.029h0.393c3.015,0,6.043,0.015,9.057,0.029
			c6.162,0.028,12.31,0.104,18.439,0.211c18.412,0.332,36.766,0.947,55.024,1.867
			C3245.625,800.004,3777.086,1170.624,4037.113,1698.905z"/>
		<path fill="none" stroke="#FFFFFF" stroke-width="13" stroke-miterlimit="10" d="M1776.784,2434.659
			c23.098-191.849,46.21-383.714,69.309-575.563c29.021-28.055,58.037-56.125,87.058-84.18l41.768,19.437
			c6.75,10.577,13.516,21.142,20.268,31.718c-28.115,26.578-56.201,53.155-84.303,79.733l31.643,528.854
			c-1.795,2.666-32.471,46.48-86.638,44.447C1806.375,2477.238,1779.48,2438.667,1776.784,2434.659z"/>
	</g>
	<g display="inline">
		<g>
			<g>
				<defs>
					<path id="SVGID_10_" d="M1441.542,3143.563c-32.831,16.517-63.612,34.036-92.391,52.181
						c17.13,22.81,35.937,45.741,56.229,67.604c217.748,234.507,604.58,286.729,637.337,290.794
						c21.079,5.758,106.346,26.444,192.856-19.587c127.71-67.95,138.167-217.434,138.618-226.006
						c3.613-60.239,7.248-120.489,10.862-180.729c-84.977-40.756-191.321-79.465-322.752-95.752
						c-19.821-2.457-61.7-7.07-119.292-7.07C1824.104,3024.999,1638.255,3044.665,1441.542,3143.563"/>
				</defs>
				<clipPath id="SVGID_11_">
					<use xlink:href="#SVGID_10_"  overflow="visible"/>
				</clipPath>
				
					<linearGradient id="SVGID_12_" gradientUnits="userSpaceOnUse" x1="3534.0039" y1="6005.9316" x2="3535.5107" y2="6005.9316" gradientTransform="matrix(687.53 0 0 -687.53 -2428384.5 4132561)">
					<stop  offset="0" style="stop-color:#3A2E42"/>
					<stop  offset="1" style="stop-color:#2BB5B4"/>
				</linearGradient>
				<rect x="1349.151" y="3024.996" clip-path="url(#SVGID_11_)" fill="url(#SVGID_12_)" width="1035.905" height="555.589"/>
			</g>
		</g>
	</g>
	<g display="inline">
		<path fill="none" stroke="#3A2E42" stroke-width="40" stroke-miterlimit="10" d="M2385.057,3127.819
			c-3.617,60.239-7.248,120.489-10.863,180.729c-0.45,8.572-10.907,158.054-138.615,226.007
			c-86.518,46.03-171.78,25.344-192.858,19.586c-32.757-4.064-419.588-56.289-637.337-290.793
			c-20.296-21.861-39.1-44.795-56.229-67.604c28.776-18.145,59.561-35.664,92.392-52.179
			c291.983-146.795,560.012-119.03,620.763-111.496C2193.734,3048.355,2300.077,3087.063,2385.057,3127.819z"/>
		<path fill="none" stroke="#3A2E42" stroke-width="13" stroke-miterlimit="10" d="M1436.494,1187.395
			c-20.672,18.684-40.982,37.998-60.9,57.934l-0.286,0.271c-17.355,17.356-34.276,35.031-50.717,52.96
			c-2.29,2.486-4.563,4.988-6.825,7.476c-0.662-1.115-1.341-2.229-2.004-3.345c37.622-40.714,77.266-79.539,118.76-116.318
			C1435.184,1186.716,1435.831,1187.063,1436.494,1187.395z"/>
		<path fill="none" stroke="#3A2E42" stroke-width="13" stroke-miterlimit="10" d="M2516.125,767.128
			c-15.941,0.257-31.822,0.724-47.643,1.401c-3.375,0.148-6.752,0.302-10.109,0.468c0-0.03,0.015-0.045,0.015-0.076
			c2.847-0.135,5.726-0.271,8.588-0.392C2483.294,767.822,2499.688,767.354,2516.125,767.128z"/>
		<path fill="#3A2E42" d="M4143.563,2893.571c0.514-38.257-0.285-78.287-2.756-119.904
			c-7.459-125.327-28.313-233.688-51.229-320.928c-14.962,24.198-31.958,50.007-51.168,76.903
			c1.958-31.416,2.953-63.088,2.953-94.983c0-61.594-3.707-122.313-10.924-181.964c-0.017-0.182-0.048-0.377-0.063-0.56
			c29.245,5.318,57.904,13.168,85.564,23.564c31.655,11.889,60.888,26.698,87.795,43.936c0.018,0.229,0.031,0.438,0.045,0.662
			c2.547,37.668,3.842,75.668,3.842,113.982C4207.627,2593.586,4185.283,2747.662,4143.563,2893.571"/>
		<path fill="none" stroke="#3A2E42" stroke-width="13" stroke-miterlimit="10" d="M4143.563,2893.571
			c0.514-38.257-0.285-78.287-2.756-119.904c-7.459-125.327-28.313-233.688-51.229-320.928
			c-14.962,24.198-31.958,50.007-51.168,76.903c1.958-31.416,2.953-63.088,2.953-94.983c0-61.594-3.707-122.313-10.924-181.964
			c-0.017-0.182-0.048-0.377-0.063-0.56c29.245,5.318,57.904,13.168,85.564,23.564c31.655,11.889,60.888,26.698,87.795,43.936
			c0.018,0.229,0.031,0.438,0.045,0.662c2.547,37.668,3.842,75.668,3.842,113.982
			C4207.627,2593.586,4185.283,2747.662,4143.563,2893.571z"/>
		<path fill="none" stroke="#3A2E42" stroke-width="13" stroke-miterlimit="10" d="M3548.609,3075.747
			c0.211,0.18,0.406,0.345,0.616,0.526c-77.444-1.235-187.269-16.545-283.261-87.391
			c-218.156-160.99-235.889-513.424-145.457-764.049c-90.207,250.596-72.354,602.646,145.653,763.537
			C3361.824,3058.977,3471.195,3074.42,3548.609,3075.747z"/>
	</g>
	<g display="inline">
		<g>
			<g>
				<defs>
					<path id="SVGID_13_" d="M2848.051,3534.554c26.639,14.179,53.158,22.015,77.719,25.934
						c55.222,8.77,100.559-2.366,115.143-6.347c21.168-2.621,190.161-25.355,365.859-104.396
						c-205.668-41.255-285.84-100.949-491.67-104.28c-64.44-1.039-124.95,3.708-180.686,11.995
						c-6.825-5.998-13.741-11.979-20.778-17.916C2723.102,3388.871,2753.311,3484.141,2848.051,3534.554"/>
				</defs>
				<clipPath id="SVGID_14_">
					<use xlink:href="#SVGID_13_"  overflow="visible"/>
				</clipPath>
				
					<linearGradient id="SVGID_15_" gradientUnits="userSpaceOnUse" x1="3531.54" y1="6008.7617" x2="3533.0469" y2="6008.7617" gradientTransform="matrix(460.03 0 0 -460.03 -1621900.75 2767665.25)">
					<stop  offset="0" style="stop-color:#3A2E42"/>
					<stop  offset="1" style="stop-color:#2BB5B4"/>
				</linearGradient>
				<rect x="2713.638" y="3339.541" clip-path="url(#SVGID_14_)" fill="url(#SVGID_15_)" width="693.134" height="229.714"/>
			</g>
		</g>
	</g>
	<g display="inline">
		<path fill="none" stroke="#3A2E42" stroke-width="40" stroke-miterlimit="10" d="M2915.102,3345.462
			c205.83,3.331,286.002,63.024,491.668,104.28c-175.696,79.041-344.688,101.774-365.857,104.396
			c-14.584,3.979-59.921,15.114-115.145,6.346c-24.561-3.92-51.076-11.752-77.716-25.933
			c-94.741-50.413-124.95-145.683-134.413-195.013c7.036,5.938,13.952,11.918,20.777,17.916
			C2790.148,3349.17,2850.659,3344.423,2915.102,3345.462z"/>
		<path fill="none" stroke="#3A2E42" stroke-width="13" stroke-miterlimit="10" d="M4030.439,2252.694
			c-0.094-0.015-0.166-0.03-0.258-0.045c-155.025-28.251-326.353,14.63-450.82,127.526
			c-59.803,54.228-109.887,125.631-141.494,204.385c31.595-78.967,81.77-150.549,141.688-204.896
			c124.47-112.896,295.782-155.777,450.821-127.524C4030.395,2252.316,4030.425,2252.514,4030.439,2252.694z"/>
		<path fill="#3A2E42" d="M2626.219,769.057c-18.757-0.947-37.604-1.565-56.531-1.869c-6.132-0.104-12.277-0.18-18.439-0.209
			c-3.014-0.016-6.042-0.029-9.056-0.029h-0.394c-3.072,0-6.133,0.016-9.207,0.029c-5.498,0.029-10.98,0.074-16.467,0.149
			c-16.438,0.228-32.831,0.693-49.148,1.401c-2.862,0.121-5.74,0.257-8.591,0.392c3.829-15.293,7.625-30.586,11.453-45.879h141.66
			C2616.41,738.38,2621.309,753.719,2626.219,769.057"/>
		<path fill="none" stroke="#3A2E42" stroke-width="13" stroke-miterlimit="10" d="M2626.219,769.057
			c-18.757-0.947-37.604-1.565-56.531-1.869c-6.132-0.104-12.277-0.18-18.439-0.209c-3.014-0.016-6.042-0.029-9.056-0.029h-0.394
			c-3.072,0-6.133,0.016-9.207,0.029c-5.498,0.029-10.98,0.074-16.467,0.149c-16.438,0.228-32.831,0.693-49.148,1.401
			c-2.862,0.121-5.74,0.257-8.591,0.392c3.829-15.293,7.625-30.586,11.453-45.879h141.66
			C2616.41,738.38,2621.309,753.719,2626.219,769.057z"/>
		<path fill="none" stroke="#3A2E42" stroke-width="13" stroke-miterlimit="10" d="M2516.125,767.128
			c-15.941,0.257-31.822,0.724-47.643,1.401c-3.375,0.148-6.752,0.302-10.109,0.468c0-0.03,0.015-0.045,0.015-0.076
			c2.847-0.135,5.726-0.271,8.588-0.392C2483.294,767.822,2499.688,767.354,2516.125,767.128z"/>
		<path fill="#3A2E42" d="M2599.445,426.221c-19.723,70.86-30.769,109.523-25.613,164.23c3.811,40.426,14.902,73.016,24.105,94.923
			h-116.362c13.198-20.25,29.517-50.927,36.509-90.402c9.658-54.525-4.686-90.868-27.121-171.765
			c-33.916-122.253-50.61-184.421-37.668-235.046c11.571-45.262,45.292-112.34,91.909-114.51
			c45.11-2.094,88.231,57.24,102.456,109.989C2656.203,215.312,2652.195,236.737,2599.445,426.221"/>
		<path fill="none" stroke="#3A2E42" stroke-width="13" stroke-miterlimit="10" d="M2599.445,426.221
			c-19.723,70.86-30.769,109.523-25.613,164.23c3.811,40.426,14.902,73.016,24.105,94.923h-116.362
			c13.198-20.25,29.517-50.927,36.509-90.402c9.658-54.525-4.686-90.868-27.121-171.765
			c-33.916-122.253-50.61-184.421-37.668-235.046c11.571-45.262,45.292-112.34,91.909-114.51
			c45.11-2.094,88.231,57.24,102.456,109.989C2656.203,215.312,2652.195,236.737,2599.445,426.221z"/>
		<path fill="#3A2E42" d="M1434.521,1186.369c-41.495,36.777-81.139,75.604-118.761,116.316l-22.374-37.245l100.165-100.182
			C1407.205,1172.297,1420.87,1179.349,1434.521,1186.369"/>
		<path fill="none" stroke="#3A2E42" stroke-width="13" stroke-miterlimit="10" d="M1434.521,1186.369
			c-41.495,36.777-81.139,75.604-118.761,116.316l-22.374-37.245l100.165-100.182
			C1407.205,1172.297,1420.87,1179.349,1434.521,1186.369z"/>
		<path fill="none" stroke="#3A2E42" stroke-width="13" stroke-miterlimit="10" d="M1436.494,1187.395
			c-20.672,18.684-40.982,37.998-60.9,57.934l-0.286,0.271c-17.355,17.356-34.276,35.031-50.717,52.96
			c-2.29,2.486-4.563,4.988-6.825,7.476c-0.662-1.115-1.341-2.229-2.004-3.345c37.622-40.714,77.266-79.539,118.76-116.318
			C1435.184,1186.716,1435.831,1187.063,1436.494,1187.395z"/>
		<path fill="#3A2E42" d="M1357.332,1148.219c-27.438,27.422-54.859,54.859-82.297,82.281
			c-4.973-23.655-15.127-56.878-38.104-89.739c-31.729-45.382-67.546-60.946-140.62-102.272
			c-110.44-62.471-166.188-94.622-192.844-139.567c-23.836-40.199-47.416-111.466-15.986-145.969
			c30.423-33.374,102.863-21.908,150.221,5.334c28.446,16.348,40.756,34.322,137.441,205.62
			c36.159,64.063,55.688,99.199,98.025,134.247C1304.432,1124.036,1335.319,1139.239,1357.332,1148.219"/>
		<path fill="none" stroke="#3A2E42" stroke-width="13" stroke-miterlimit="10" d="M1357.332,1148.219
			c-27.438,27.422-54.859,54.859-82.297,82.281c-4.973-23.655-15.127-56.878-38.104-89.739
			c-31.729-45.382-67.546-60.946-140.62-102.272c-110.44-62.471-166.188-94.622-192.844-139.567
			c-23.836-40.199-47.416-111.466-15.986-145.969c30.423-33.374,102.863-21.908,150.221,5.334
			c28.446,16.348,40.756,34.322,137.441,205.62c36.159,64.063,55.688,99.199,98.025,134.247
			C1304.432,1124.036,1335.319,1139.239,1357.332,1148.219z"/>
		<path fill="#3A2E42" d="M3807.387,1265.439c-8.121,13.53-16.258,27.062-24.38,40.593c-2.26-2.486-4.55-4.988-6.823-7.476
			c-16.438-17.93-33.358-35.604-50.729-52.961l-0.271-0.271c-19.92-19.937-40.246-39.25-60.9-57.936
			c14.313-7.368,28.628-14.75,42.941-22.134L3807.387,1265.439z"/>
		<path fill="none" stroke="#3A2E42" stroke-width="13" stroke-miterlimit="10" d="M3807.387,1265.439
			c-8.121,13.53-16.258,27.062-24.38,40.593c-2.26-2.486-4.55-4.988-6.823-7.476c-16.438-17.93-33.358-35.604-50.729-52.961
			l-0.271-0.271c-19.92-19.937-40.246-39.25-60.9-57.936c14.313-7.368,28.628-14.75,42.941-22.134L3807.387,1265.439z"/>
		<path fill="#3A2E42" d="M4197.307,898.919c-26.65,44.945-82.416,77.099-192.844,139.567
			c-73.074,41.328-108.902,56.893-140.635,102.272c-22.963,32.861-33.119,66.084-38.105,89.739l-82.279-82.28
			c22.014-8.979,52.898-24.184,84.165-50.067c42.339-35.046,61.862-70.184,98.023-134.246
			c96.671-171.3,108.995-189.272,137.429-205.62c47.369-27.242,119.813-38.708,150.217-5.334
			C4244.723,787.453,4221.145,858.72,4197.307,898.919"/>
		<path fill="none" stroke="#3A2E42" stroke-width="13" stroke-miterlimit="10" d="M4197.307,898.919
			c-26.65,44.945-82.416,77.099-192.844,139.567c-73.074,41.328-108.902,56.893-140.635,102.272
			c-22.963,32.861-33.119,66.084-38.105,89.739l-82.279-82.28c22.014-8.979,52.898-24.184,84.165-50.067
			c42.339-35.046,61.862-70.184,98.023-134.246c96.671-171.3,108.995-189.272,137.429-205.62
			c47.369-27.242,119.813-38.708,150.217-5.334C4244.723,787.453,4221.145,858.72,4197.307,898.919z"/>
		<path fill="#3A2E42" d="M872.219,2515.841c0.15,3.376,0.301,6.748,0.467,10.108c-15.321-3.825-30.632-7.639-45.955-11.465v-141.66
			c15.34-4.912,30.679-9.811,46.018-14.723c-1.401,27.83-2.11,55.854-2.11,84.029v0.393
			C870.636,2467.083,871.163,2491.537,872.219,2515.841"/>
		<path fill="none" stroke="#3A2E42" stroke-width="13" stroke-miterlimit="10" d="M872.219,2515.841
			c0.15,3.376,0.301,6.748,0.467,10.108c-15.321-3.825-30.632-7.639-45.955-11.465v-141.66c15.34-4.912,30.679-9.811,46.018-14.723
			c-1.401,27.83-2.11,55.854-2.11,84.029v0.393C870.636,2467.083,871.163,2491.537,872.219,2515.841z"/>
		<path fill="#3A2E42" d="M789.063,2386.385v116.361c-20.233-13.198-50.91-29.516-90.4-36.506
			c-54.527-9.658-90.854,4.671-171.766,27.12c-122.255,33.916-184.405,50.596-235.045,37.669
			c-45.262-11.571-112.34-45.292-114.51-91.91c-2.095-45.111,57.24-88.232,109.989-102.456c31.671-8.543,53.097-4.551,242.58,48.215
			c70.875,19.725,109.537,30.769,164.229,25.613C734.564,2406.68,767.171,2395.591,789.063,2386.385"/>
		<path fill="none" stroke="#3A2E42" stroke-width="13" stroke-miterlimit="10" d="M789.063,2386.385v116.361
			c-20.233-13.198-50.91-29.516-90.4-36.506c-54.527-9.658-90.854,4.671-171.766,27.12
			c-122.255,33.916-184.405,50.596-235.045,37.669c-45.262-11.571-112.34-45.292-114.51-91.91
			c-2.095-45.111,57.24-88.232,109.989-102.456c31.671-8.543,53.097-4.551,242.58,48.215
			c70.875,19.725,109.537,30.769,164.229,25.613C734.564,2406.68,767.171,2395.591,789.063,2386.385z"/>
	</g>
</g>
<g>
	<path fill="none" stroke="#B9EDDB" stroke-width="11" stroke-miterlimit="10" d="M2441.655,2180.828
		c-19.129,318.676-38.313,637.354-57.48,956.009c-86.08-41.296-193.88-80.514-327.1-97.043
		c-61.542-7.627-333.164-35.767-629.104,113.007c-33.311,16.739-64.484,34.492-93.643,52.883
		c-73.804-98.232-117.093-194.131-117.093-194.131c-27.45-60.859-44.353-114.98-54.966-155.752
		c22.933,11.547,59.007,26.262,105.388,32.074c51.877,6.482,94.515-0.959,120.586-7.631
		c-56.938-37.81-120.336-85.846-184.724-146.578c-74.744-70.511-133.656-141.768-179.684-206.566
		c-1.872-30.677-2.792-61.607-2.792-92.746c0-712.431,489.84-1310.41,1151.117-1475.608
		c-226.989,201.46-453.984,403.007-681.021,604.492c145.021,67.48,290.041,134.989,435.081,202.479
		c-29.381,28.432-58.842,56.879-88.249,85.311c-23.4,194.436-46.808,388.915-70.232,583.308c2.732,4.063,29.99,43.167,80.183,45.063
		c54.851,2.043,85.972-42.352,87.784-45.063l-32.057-535.979c28.49-26.948,56.941-53.834,85.434-80.782
		c82.748,129.45,165.443,259.002,248.186,388.474C2294.049,2205.547,2364.268,2199.712,2441.655,2180.828z"/>
	<path fill="none" stroke="#B9EDDB" stroke-width="11" stroke-miterlimit="10" d="M3882.581,2733.643
		c-64.403,60.731-127.785,108.793-184.744,146.563c26.114,6.688,68.754,14.132,120.612,7.652
		c46.355-5.82,82.415-20.531,105.361-32.082c-10.613,40.771-27.469,94.896-54.939,155.759c0,0-66.068,146.313-174.095,262.646
		c-78.081,84.08-177.581,145.063-275.119,188.922c-208.464-41.819-289.688-102.322-498.303-105.692
		c-65.31-1.052-126.649,3.766-183.093,12.172c-6.947-6.089-13.924-12.146-21.069-18.193c-3.356-17.385-4.131-29.18-4.253-31.391
		c-24.321-404.882-48.674-809.785-73.015-1214.64c285.856-152.125,406.523-426.807,437.188-502.465
		c-28.87-48.376-57.688-96.751-86.557-145.126c43.897-44.204,87.722-88.452,131.594-132.639
		c65.607-66.174,131.228-132.284,196.854-198.417c227.865,135.664,417.26,329.267,547.882,560.447
		c-298.021,29.72-590.75,205.066-714.946,479.184c-4.481,9.878-8.773,19.965-12.889,30.221c-3.302,8.254-6.48,16.613-9.518,25.117
		c-91.685,253.979-73.679,611.194,147.396,774.329c97.287,71.78,208.601,87.324,287.083,88.558
		c-0.236-0.194-0.422-0.354-0.627-0.504c0.273,0,0.563,0,0.827,0c-37.593-32.082-93.452-89.391-125.234-175.616
		c-36.558-99.246-29.788-206.023,4.962-303.186c2.271-6.378,4.663-12.717,7.188-19.03c32.059-79.806,82.826-152.172,143.413-207.132
		c126.139-114.423,299.78-157.879,456.905-129.241c0.084,0,0.16,0.041,0.25,0.041c7.338,60.463,11.092,121.99,11.092,184.414
		c0,32.326-1.005,64.442-3.028,96.27C4014.102,2594.505,3956.008,2664.447,3882.581,2733.643z"/>
	<path fill="none" stroke="#B9EDDB" stroke-width="11" stroke-miterlimit="10" d="M1047.061,3463.706
		c-163.609,208.231-212.322,420.43-229.055,523.781c52.688-63.736,146.729-159.379,290.122-221.455
		c130.349-56.413,252.086-63.663,376.992-53.474c-148.019-118.774-247.099-260.698-312.486-384.407
		C1118.78,3377.563,1077.345,3425.129,1047.061,3463.706"/>
	<path fill="none" stroke="#B9EDDB" stroke-width="45" stroke-miterlimit="10" d="M1485.102,3712.559
		c-124.927-10.188-246.644-2.914-376.974,53.498c-143.414,62.072-237.435,157.721-290.146,221.455
		c16.737-103.359,65.444-315.553,229.062-523.783c30.282-38.6,71.712-86.146,125.573-135.563
		C1238.021,3451.893,1337.102,3593.784,1485.102,3712.559z"/>
	<path fill="none" stroke="#B9EDDB" stroke-width="11" stroke-miterlimit="10" d="M2383.459,3136.248
		c-3.664,61.049-7.33,122.11-11.021,183.163c-0.44,8.695-11.043,160.176-140.457,229.038
		c-87.659,46.668-174.116,25.703-195.457,19.868c-33.223-4.114-425.244-57.03-645.924-294.71
		c-20.568-22.157-39.615-45.4-56.977-68.512c29.176-18.383,60.359-36.145,93.623-52.901
		c295.915-148.772,567.551-120.635,629.137-113.003C2189.59,3055.716,2297.341,3094.924,2383.459,3136.248z"/>
	<path fill="none" stroke="#B9EDDB" stroke-width="45" stroke-miterlimit="10" d="M3029.819,3983.65
		c-61.854,19.379-134.89,53.814-215.148,117.427c-34.767,27.556-70.93,60.593-108.071,100.235
		c35.148,20.842,75.572,41.821,127.039,64.065c214.066,92.646,409.793,117.11,539,123.694
		c-83.996,22.888-212.409,47.562-364.943,32.076c-154.827-15.693-255.781-64.813-380.334-126.723
		c-27.844,35.77-56.063,75.43-84.62,119.434c-0.161,0.184-0.271,0.416-0.411,0.578c-0.133-0.187-0.271-0.41-0.382-0.578
		c-67.94-104.676-134.161-184.875-197.021-246.461c-43.06-16.278-90.082-32.578-141.954-48.604
		c-188.578-58.236-285.453-86.829-413.83-62.608c-211.396,39.93-350.832,192.795-418.381,280.969
		c106.297-15.939,265.094-26.846,445.877,15.258c364.762,84.975,470.161,304.445,801.698,464.215
		c405.488,195.43,807.445,136.775,879.539,125.227c409.533-65.69,870.533-328.196,1050.569-763.508
		c38.002-91.875,56.217-173.787,65.655-232.102c-58.251,71.824-253.149,293.02-571.099,340.492
		c-237.851,35.563-483.123-35.273-686.438-187.695c-62.44-46.798-120.952-101.313-174.035-162.801
		C3112.461,3961.393,3064.629,3972.738,3029.819,3983.65"/>
	<path fill="none" stroke="#B9EDDB" stroke-width="45" stroke-miterlimit="10" d="M4614.083,3946.244
		c-9.47,58.313-27.659,140.227-65.647,232.102c-180.041,435.311-641.025,697.816-1050.586,763.507
		c-72.111,11.551-474.072,70.203-879.537-125.226c-331.514-159.771-436.934-379.262-801.697-464.215
		c-180.786-42.104-339.559-31.197-445.868-15.258c67.543-88.174,206.979-241.039,418.377-280.97
		c128.354-24.243,225.229,4.373,413.801,62.609c51.92,16.026,98.942,32.349,141.983,48.604
		c62.857,61.586,129.1,141.785,197.023,246.461c0.104,0.184,0.245,0.416,0.371,0.578c0.149-0.211,0.251-0.41,0.394-0.578
		c28.58-44.004,56.796-83.664,84.646-119.434c124.549,61.884,225.516,111.008,380.327,126.723
		c152.522,15.483,280.949-9.188,364.946-32.076c-129.201-6.584-324.93-31.053-539.002-123.694
		c-51.454-22.244-91.891-43.228-127.026-64.065c37.122-39.668,73.318-72.682,108.063-100.235
		c80.24-63.584,153.295-98.047,215.149-117.427c34.79-10.912,82.64-22.26,152.672-47.41
		c53.082,61.485,111.592,115.982,174.035,162.8c203.313,152.422,448.602,223.259,686.411,187.696
		C4360.913,4239.264,4555.791,4018.069,4614.083,3946.244z"/>
	<path fill="none" stroke="#B9EDDB" stroke-width="45" stroke-miterlimit="10" d="M3866.014,1687.117
		c-298.085,29.723-590.752,205.044-714.971,479.16c-4.398,9.714-8.605,19.634-12.674,29.72c-3.314,8.256-6.504,16.636-9.532,25.116
		c-91.635,254.004-73.695,611.195,147.428,774.353c97.285,71.774,208.562,87.283,287.036,88.563c-0.21-0.218-0.4-0.385-0.621-0.545
		c-37.584-32.185-92.957-89.332-124.6-175.078c-36.616-99.443-29.766-206.4,5.123-303.675c2.313-6.393,4.711-12.73,7.239-19.052
		c32.028-79.799,82.804-152.184,143.409-207.145c126.137-114.383,299.795-157.838,456.88-129.222c0.112,0,0.19,0,0.274,0.02
		c29.567,5.396,58.504,13.339,86.451,23.847c32.102,12.043,61.733,27.05,88.998,44.538c0.061,0.042,0.172,0.104,0.228,0.146
		c202.569,129.892,275.312,395.604,258.942,596.67c-19.492,239.662-172.385,430.994-342.016,523.719
		c-110.407,60.361-220.783,75.092-346.023,70.262c-61.674,81.264-138.789,162.084-235.039,232.869
		c-132.931,97.813-270.328,152.818-335.891,178.658c-15.549,6.104-30.129,11.584-43.854,16.514
		c-0.188,0.033-0.334,0.104-0.481,0.188c53.103,61.503,111.587,115.986,174.036,162.817c0.354,0,0.666,0.045,1.039,0.077
		c218.8,19.948,548.049,2.592,867.135-198.729c42.73-26.925,645.365-421.468,629.146-1116.195
		c-8.795-375.932-201.586-958.285-703.945-1079.588c-30.217-7.293-60.982-12.797-92.104-16.506
		c-33.637-4.021-67.627-6.004-101.791-6.004C3925.911,1682.613,3895.915,1684.117,3866.014,1687.117"/>
	<path fill="none" stroke="#B9EDDB" stroke-width="45" stroke-miterlimit="10" d="M4224.523,3900.934
		c-319.101,201.315-648.35,218.651-867.146,198.729c-0.377-0.043-0.687-0.058-1.044-0.083
		c-62.463-46.836-120.924-101.318-174.035-162.804c0.174-0.093,0.32-0.159,0.485-0.199c13.736-4.924,28.299-10.403,43.848-16.509
		c65.574-25.84,202.986-80.844,335.896-178.665c96.25-70.775,173.364-151.624,235.04-232.863
		c125.215,4.853,235.613-9.909,346.018-70.237c169.656-92.751,322.518-284.059,342.021-523.738
		c16.387-201.073-56.379-466.787-258.942-596.677c-0.06-0.039-0.167-0.104-0.229-0.145c-27.258-17.488-56.898-32.478-89-44.539
		c-27.94-10.505-56.879-18.445-86.428-23.849c-0.129-0.021-0.188-0.021-0.294-0.021c-157.091-28.633-330.745,14.821-456.86,129.222
		c-60.632,54.963-111.4,127.366-143.435,207.15c-2.522,6.313-4.902,12.673-7.238,19.052
		c-34.885,97.291-41.718,204.229-5.125,303.673c31.617,85.762,87.015,142.892,124.623,175.064c0.22,0.186,0.411,0.381,0.597,0.544
		c-78.466-1.29-189.766-16.773-287.057-88.561c-221.093-163.17-239.042-520.34-147.395-774.343
		c3.039-8.462,6.207-16.842,9.502-25.116c4.063-10.086,8.291-20.011,12.689-29.72c124.243-274.098,416.867-449.461,714.971-479.165
		c64.148-6.396,128.519-6.066,191.583,1.521c31.121,3.709,61.878,9.213,92.103,16.488
		c502.334,121.32,695.125,703.653,703.924,1079.582C4869.9,3479.455,4267.241,3874.004,4224.523,3900.934z"/>
	<path fill="none" stroke="#B9EDDB" stroke-width="11" stroke-miterlimit="10" d="M1766.995,2433.77
		c23.426-194.416,46.826-388.877,70.262-583.291c29.446-28.43,58.833-56.881,88.226-85.329l42.306,19.72
		c6.854,10.709,13.706,21.424,20.55,32.138c-28.496,26.929-56.967,53.855-85.433,80.808l32.052,535.955
		c-1.813,2.709-32.884,47.104-87.759,45.063C1796.984,2476.912,1769.725,2437.832,1766.995,2433.77z"/>
	<path fill="none" stroke="#B9EDDB" stroke-width="11" stroke-miterlimit="10" d="M2383.459,3136.248
		c-3.664,61.049-7.33,122.11-11.021,183.163c-0.44,8.695-11.043,160.176-140.457,229.038
		c-87.659,46.668-174.116,25.703-195.457,19.868c-33.223-4.114-425.244-57.03-645.924-294.71
		c-20.568-22.157-39.615-45.4-56.977-68.512c29.176-18.383,60.359-36.145,93.623-52.901
		c295.915-148.772,567.551-120.635,629.137-113.003C2189.59,3055.716,2297.341,3094.924,2383.459,3136.248z"/>
	<path fill="none" stroke="#B9EDDB" stroke-width="11" stroke-miterlimit="10" d="M3562.697,3083.485
		c0.227,0.181,0.418,0.342,0.604,0.544c-78.477-1.303-189.766-16.788-287.035-88.563
		c-221.123-163.174-239.063-520.347-147.429-774.352c-91.425,253.985-73.337,610.76,147.606,773.827
		C3373.428,3066.475,3484.207,3082.138,3562.697,3083.485z"/>
	<path fill="none" stroke="#B9EDDB" stroke-width="11" stroke-miterlimit="10" d="M2920.646,3356.827
		c208.616,3.368,289.854,63.854,498.295,105.691c-178.027,80.088-349.312,103.144-370.775,105.798
		c-14.778,4.041-60.719,15.289-116.678,6.437c-24.883-3.981-51.813-11.896-78.762-26.29
		c-96.041-51.077-126.641-147.621-136.241-197.617c7.146,5.981,14.146,12.064,21.071,18.17
		C2794.018,3360.6,2855.35,3355.784,2920.646,3356.827z"/>
	<path fill="none" stroke="#B9EDDB" stroke-width="11" stroke-miterlimit="10" d="M4051.033,2249.334
		c-0.108-0.018-0.188-0.018-0.273-0.018c-157.111-28.642-330.744,14.814-456.882,129.222
		c-60.606,54.961-111.405,127.368-143.423,207.143c32.018-80.028,82.896-152.562,143.613-207.645
		c126.154-114.427,299.766-157.858,456.881-129.222C4050.984,2248.962,4051.009,2249.167,4051.033,2249.334z"/>
	<path fill="#B9EDDB" stroke="#B9EDDB" stroke-width="11" stroke-miterlimit="10" d="M4165.662,2898.863
		c-1.357,100.312-11.561,188.639-24.156,261.751c-5.19-32.64-13.511-70.147-26.946-110.69
		c-6.179-18.527-13.451-37.685-21.926-57.272c-12.109-27.808-25.138-52.729-38.166-74.822c-5.879,32.34-15.716,79.76-32.076,135.89
		c-20.03,68.553-79.095,262.484-224.64,454.266c-61.625,81.252-138.739,162.105-234.987,232.838
		c-132.951,97.813-270.351,152.834-335.933,178.68c-15.697,6.187-30.461,11.713-44.32,16.725
		c-70.028,25.15-117.864,36.491-152.644,47.403c-61.888,19.396-134.917,53.823-215.179,117.431
		c-34.762,27.554-70.929,60.568-108.069,100.234c-25.946,27.672-52.417,58.605-79.235,93.122
		c-27.828,35.763-56.07,75.426-84.618,119.426c-0.152,0.19-0.271,0.392-0.423,0.579c-0.123-0.202-0.274-0.414-0.373-0.579
		c-67.931-104.67-134.159-184.876-197.022-246.457c-25.264-24.782-50.026-46.565-74.139-65.696
		c-80.572-63.984-153.877-98.586-215.962-118.06c-41.645-13.034-102.108-26.771-196.957-64.128
		c-65.6-25.846-203.006-80.866-335.94-178.68c-12.608-9.233-24.881-18.692-36.829-28.278
		c-148.043-118.756-247.1-260.68-312.503-384.389c-64.948-122.831-96.689-227.722-110.321-274.455
		c-16.342-56.109-26.178-103.544-32.054-135.869c-13.024,22.067-26.099,47.017-38.184,74.822
		c-9.173,21.114-16.886,41.702-23.345,61.546c-12.629,38.876-20.53,74.927-25.508,106.398
		c-12.15-70.39-22.074-154.794-24.011-250.479c-0.815-42.158-0.127-86.501,2.624-132.788
		c7.567-127.011,28.703-236.854,51.918-325.241c14.529,23.448,30.932,48.438,49.379,74.404
		c46.02,64.844,104.915,136.081,179.654,206.565c64.427,60.716,127.806,108.778,184.793,146.588
		c-26.12,6.668-68.764,14.134-120.636,7.628c-46.355-5.814-82.396-20.531-105.384-32.083c10.61,40.771,27.514,94.898,54.985,155.735
		c0,0,43.248,95.881,117.063,194.169c17.365,23.111,36.417,46.354,56.991,68.512c220.694,237.681,612.716,290.552,645.939,294.71
		c21.339,5.835,107.771,26.801,195.457-19.867c129.39-68.882,140.015-220.344,140.455-229.039
		c3.693-61.053,7.358-122.112,11.022-183.162c19.139-318.675,38.307-637.287,57.466-955.984
		c39.685-9.709,81.303-22.801,123.922-40.451c25.953-10.714,50.735-22.47,74.373-35.058
		c24.341,404.899,48.623,809.762,72.989,1214.637c0.126,2.254,0.892,14.01,4.228,31.432
		c9.615,49.999,40.224,146.528,136.268,197.627c26.974,14.407,53.856,22.322,78.751,26.255
		c55.951,8.885,101.889-2.346,116.667-6.417c21.485-2.641,192.748-25.692,370.786-105.797
		c97.518-43.842,197.043-104.813,275.157-188.906c108.007-116.319,174.074-262.682,174.074-262.682
		c27.468-60.833,44.343-114.963,54.938-155.728c-22.911,11.543-58.979,26.243-105.361,32.077c-51.872,6.5-94.514-0.96-120.628-7.632
		c56.979-37.804,120.403-85.869,184.782-146.584c73.392-69.198,131.519-139.181,177.203-203.04
		c19.439-27.262,36.656-53.419,51.834-77.93c23.258,88.409,44.371,198.231,51.939,325.246
		C4165.348,2819.511,4166.157,2860.071,4165.662,2898.863"/>
	<path fill="none" stroke="#B9EDDB" stroke-width="11" stroke-miterlimit="10" d="M4165.662,2898.863
		c-1.357,100.312-11.561,188.639-24.156,261.751c-5.19-32.64-13.511-70.147-26.946-110.69
		c-6.179-18.527-13.451-37.685-21.926-57.272c-12.109-27.808-25.138-52.729-38.166-74.822c-5.879,32.34-15.716,79.76-32.076,135.89
		c-20.03,68.553-79.095,262.484-224.64,454.266c-61.625,81.252-138.739,162.105-234.987,232.838
		c-132.951,97.813-270.351,152.834-335.933,178.68c-15.697,6.187-30.461,11.713-44.32,16.725
		c-70.028,25.15-117.864,36.491-152.644,47.403c-61.888,19.396-134.917,53.823-215.179,117.431
		c-34.762,27.554-70.929,60.568-108.069,100.234c-25.946,27.672-52.417,58.605-79.235,93.122
		c-27.828,35.763-56.07,75.426-84.618,119.426c-0.152,0.19-0.271,0.392-0.423,0.579c-0.123-0.202-0.274-0.414-0.373-0.579
		c-67.931-104.67-134.159-184.876-197.022-246.457c-25.264-24.782-50.026-46.565-74.139-65.696
		c-80.572-63.984-153.877-98.586-215.962-118.06c-41.645-13.034-102.108-26.771-196.957-64.128
		c-65.6-25.846-203.006-80.866-335.94-178.68c-12.608-9.233-24.881-18.692-36.829-28.278
		c-148.043-118.756-247.1-260.68-312.503-384.389c-64.948-122.831-96.689-227.722-110.321-274.455
		c-16.342-56.109-26.178-103.544-32.054-135.869c-13.024,22.067-26.099,47.017-38.184,74.822
		c-9.173,21.114-16.886,41.702-23.345,61.546c-12.629,38.876-20.53,74.927-25.508,106.398
		c-12.15-70.39-22.074-154.794-24.011-250.479c-0.815-42.158-0.127-86.501,2.624-132.788
		c7.567-127.011,28.703-236.854,51.918-325.241c14.529,23.448,30.932,48.438,49.379,74.404
		c46.02,64.844,104.915,136.081,179.654,206.565c64.427,60.716,127.806,108.778,184.793,146.588
		c-26.12,6.668-68.764,14.134-120.636,7.628c-46.355-5.814-82.396-20.531-105.384-32.083c10.61,40.771,27.514,94.898,54.985,155.735
		c0,0,43.248,95.881,117.063,194.169c17.365,23.111,36.417,46.354,56.991,68.512c220.694,237.681,612.716,290.552,645.939,294.71
		c21.339,5.835,107.771,26.801,195.457-19.867c129.39-68.882,140.015-220.344,140.455-229.039
		c3.693-61.053,7.358-122.112,11.022-183.162c19.139-318.675,38.307-637.287,57.466-955.984
		c39.685-9.709,81.303-22.801,123.922-40.451c25.953-10.714,50.735-22.47,74.373-35.058
		c24.341,404.899,48.623,809.762,72.989,1214.637c0.126,2.254,0.892,14.01,4.228,31.432
		c9.615,49.999,40.224,146.528,136.268,197.627c26.974,14.407,53.856,22.322,78.751,26.255
		c55.951,8.885,101.889-2.346,116.667-6.417c21.485-2.641,192.748-25.692,370.786-105.797
		c97.518-43.842,197.043-104.813,275.157-188.906c108.007-116.319,174.074-262.682,174.074-262.682
		c27.468-60.833,44.343-114.963,54.938-155.728c-22.911,11.543-58.979,26.243-105.361,32.077c-51.872,6.5-94.514-0.96-120.628-7.632
		c56.979-37.804,120.403-85.869,184.782-146.584c73.392-69.198,131.519-139.181,177.203-203.04
		c19.439-27.262,36.656-53.419,51.834-77.93c23.258,88.409,44.371,198.231,51.939,325.246
		C4165.348,2819.511,4166.157,2860.071,4165.662,2898.863z"/>
	<path fill="none" stroke="#B9EDDB" stroke-width="11" stroke-miterlimit="10" d="M2542.328,4414.439
		c-0.133,0.213-0.273,0.379-0.383,0.563v-1.166C2542.068,4414.045,2542.195,4414.23,2542.328,4414.439z"/>
	<path fill="none" stroke="#B9EDDB" stroke-width="11" stroke-miterlimit="10" d="M2542.739,4413.863v1.16
		c-0.161-0.205-0.271-0.371-0.411-0.559C2542.471,4414.23,2542.578,4414.045,2542.739,4413.863z"/>
	<path fill="none" stroke="#B9EDDB" stroke-width="11" stroke-miterlimit="10" d="M3345.354,1098.846
		c-9.009,9.067-18.03,18.215-27.074,27.282c-65.573,66.135-131.228,132.284-196.859,198.419
		c-43.848,44.226-87.697,88.473-131.576,132.637c-181.701,183.228-363.379,366.408-545.159,549.609
		c-75.121-34.952-150.261-69.881-225.373-104.9c-71.653-33.322-143.313-66.691-214.988-100.038
		c106.276-100.521,212.613-201.104,318.909-301.629c9.232-8.732,18.384-17.441,27.613-26.155
		c-8.356-4.525-15.549-10.59-21.195-18.134c-14.73-19.614-16.817-45.998-8.376-73.553c-19.052,18.449-38.104,36.892-57.173,55.293
		c-112.882,109.152-225.763,218.324-338.687,327.472c-145-67.465-290.041-134.973-435.063-202.479
		c227.017-201.485,454.029-403.005,681.063-604.509c69.258-61.527,138.539-123.013,207.841-184.516l644.778,217.068
		C3131.178,1026.732,3238.283,1062.77,3345.354,1098.846"/>
	<path fill="none" stroke="#B9EDDB" stroke-width="45" stroke-miterlimit="10" d="M3345.354,1098.846
		c-9.009,9.067-18.03,18.215-27.074,27.282c-65.573,66.135-131.228,132.284-196.859,198.419
		c-43.848,44.226-87.697,88.473-131.576,132.637c-181.701,183.228-363.379,366.408-545.159,549.609
		c-75.121-34.952-150.261-69.881-225.373-104.9c-71.653-33.322-143.313-66.691-214.988-100.038
		c106.276-100.521,212.613-201.104,318.909-301.629c9.232-8.732,18.384-17.441,27.613-26.155
		c-8.356-4.525-15.549-10.59-21.195-18.134c-14.73-19.614-16.817-45.998-8.376-73.553c-19.052,18.449-38.104,36.892-57.173,55.293
		c-112.882,109.152-225.763,218.324-338.687,327.472c-145-67.465-290.041-134.973-435.063-202.479
		c227.017-201.485,454.029-403.005,681.063-604.509c69.258-61.527,138.539-123.013,207.841-184.516l644.778,217.068
		C3131.178,1026.732,3238.283,1062.77,3345.354,1098.846z"/>
	<path fill="none" stroke="#B9EDDB" stroke-width="11" stroke-miterlimit="10" d="M3076.402,1602.331
		c-30.655,75.675-151.326,350.313-437.158,502.462c-23.641,12.592-48.419,24.324-74.372,35.035
		c-42.595,17.633-84.204,30.745-123.922,40.456c-77.369,18.885-147.587,24.678-204.383,25.241
		c-82.743-129.494-165.448-259.049-248.216-388.5c-6.858-10.712-13.688-21.426-20.545-32.14
		c12.191,5.67,24.364,11.316,36.553,16.986c71.679,33.35,143.337,66.735,214.994,100.043
		c75.115,35.016,150.252,69.944,225.358,104.896c181.789-183.197,363.479-366.382,545.18-549.605
		C3018.715,1505.561,3047.534,1553.936,3076.402,1602.331"/>
	<path fill="none" stroke="#B9EDDB" stroke-width="45" stroke-miterlimit="10" d="M3076.402,1602.331
		c-30.655,75.675-151.326,350.313-437.158,502.462c-23.641,12.592-48.419,24.324-74.372,35.035
		c-42.595,17.633-84.204,30.745-123.922,40.456c-77.369,18.885-147.587,24.678-204.383,25.241
		c-82.743-129.494-165.448-259.049-248.216-388.5c-6.858-10.712-13.688-21.426-20.545-32.14
		c12.191,5.67,24.364,11.316,36.553,16.986c71.679,33.35,143.337,66.735,214.994,100.043
		c75.115,35.016,150.252,69.944,225.358,104.896c181.789-183.197,363.479-366.382,545.18-549.605
		C3018.715,1505.561,3047.534,1553.936,3076.402,1602.331z"/>
	<path fill="none" stroke="#B9EDDB" stroke-width="11" stroke-miterlimit="10" d="M2490.888,1456.021
		c-64.69,48.623-140.446,61.627-186.728,36.326c-10.111-5.462-18.803-12.798-25.655-21.946
		c-17.807-23.763-20.344-55.69-10.134-89.036v-0.022c11.883-38.621,40.932-79.138,83.247-110.899
		c22.8-17.135,46.999-29.828,70.758-37.977c55.397-19.05,108.569-13.466,137.231,18.258c1.53,1.729,3.018,3.483,4.412,5.381
		C2602.488,1307.33,2569.777,1396.846,2490.888,1456.021z"/>
	<path fill="#B9EDDB" stroke="#B9EDDB" stroke-width="11" stroke-miterlimit="10" d="M2350.888,1474.069
		c-9.232,8.688-18.386,17.397-27.618,26.154c-106.293,100.524-212.634,201.105-318.908,301.63
		c-12.188-5.689-24.361-11.32-36.555-16.985c6.858,10.709,13.688,21.424,20.545,32.138c-28.485,26.931-56.951,53.856-85.424,80.809
		l32.047,535.955c-1.813,2.709-32.879,47.104-87.777,45.062c-50.196-1.917-77.453-40.998-80.188-45.062
		c23.427-194.416,46.836-388.877,70.263-583.311c29.432-28.41,58.817-56.879,88.209-85.311
		c112.92-109.13,225.8-218.319,338.68-327.474c19.071-18.401,38.116-36.845,57.19-55.293c-8.465,27.556-6.377,53.939,8.356,73.553
		C2335.354,1463.5,2342.525,1469.543,2350.888,1474.069"/>
	<path fill="none" stroke="#B9EDDB" stroke-width="11" stroke-miterlimit="10" d="M2350.888,1474.069
		c-9.232,8.688-18.386,17.397-27.618,26.154c-106.293,100.524-212.634,201.105-318.908,301.63
		c-12.188-5.689-24.361-11.32-36.555-16.985c6.858,10.709,13.688,21.424,20.545,32.138c-28.485,26.931-56.951,53.856-85.424,80.809
		l32.047,535.955c-1.813,2.709-32.879,47.104-87.777,45.062c-50.196-1.917-77.453-40.998-80.188-45.062
		c23.427-194.416,46.836-388.877,70.263-583.311c29.432-28.41,58.817-56.879,88.209-85.311
		c112.92-109.13,225.8-218.319,338.68-327.474c19.071-18.401,38.116-36.845,57.19-55.293c-8.465,27.556-6.377,53.939,8.356,73.553
		C2335.354,1463.5,2342.525,1469.543,2350.888,1474.069z"/>
	<path fill="none" stroke="#B9EDDB" stroke-width="11" stroke-miterlimit="10" d="M2004.346,1801.83
		c-5.359,5.043-10.693,10.109-16.009,15.152c-6.844-10.714-13.697-21.425-20.55-32.139
		C1980,1790.516,1992.172,1796.165,2004.346,1801.83z"/>
	<path fill="#B9EDDB" stroke="#B9EDDB" stroke-width="11" stroke-miterlimit="10" d="M4057.744,1688.117
		c-63.012-7.566-127.411-7.922-191.543-1.521c-130.646-231.183-320.036-424.744-547.924-560.47
		c9.045-9.084,18.066-18.215,27.075-27.282c-107.089-36.061-214.177-72.113-321.284-108.146l-644.773-217.076
		c-69.302,61.528-138.573,123.011-207.88,184.519c-661.282,165.157-1151.116,763.182-1151.116,1475.628
		c0,31.114,0.938,62.049,2.817,92.748c-18.47-25.971-34.871-50.979-49.401-74.405c-23.217,88.412-44.35,198.229-51.896,325.241
		c-2.751,46.287-3.456,90.619-2.624,132.778c-44.357-151.202-68.173-311.191-68.173-476.739
		c0-442.666,170.238-845.546,448.751-1146.814c0.666,1.145,1.333,2.27,2.019,3.375c2.313-2.501,4.605-5.046,6.938-7.55
		c16.66-18.215,33.811-36.1,51.4-53.711l0.289-0.287c20.184-20.155,40.768-39.769,61.699-58.689
		c-0.651-0.336-1.317-0.69-2.004-1.049c278.598-247.019,639.381-403.436,1036.129-422.989c0.52-0.02,0.999-0.041,1.52-0.063
		c0,0.021,0,0.044,0,0.063c3.418-0.166,6.817-0.313,10.232-0.459c16.009-0.687,32.148-1.164,48.29-1.395
		c5.59-0.083,11.116-0.148,16.7-0.167c3.104-0.022,6.211-0.022,9.342-0.022h0.411c3.053,0,6.107,0,9.166,0.022
		c6.239,0.017,12.491,0.103,18.679,0.208c18.679,0.354,37.27,0.956,55.799,1.895
		C3255.625,777.107,3794.254,1152.72,4057.744,1688.117"/>
	<path fill="none" stroke="#B9EDDB" stroke-width="11" stroke-miterlimit="10" d="M4057.744,1688.117
		c-63.012-7.566-127.411-7.922-191.543-1.521c-130.646-231.183-320.036-424.744-547.924-560.47
		c9.045-9.084,18.066-18.215,27.075-27.282c-107.089-36.061-214.177-72.113-321.284-108.146l-644.773-217.076
		c-69.302,61.528-138.573,123.011-207.88,184.519c-661.282,165.157-1151.116,763.182-1151.116,1475.628
		c0,31.114,0.938,62.049,2.817,92.748c-18.47-25.971-34.871-50.979-49.401-74.405c-23.217,88.412-44.35,198.229-51.896,325.241
		c-2.751,46.287-3.456,90.619-2.624,132.778c-44.357-151.202-68.173-311.191-68.173-476.739
		c0-442.666,170.238-845.546,448.751-1146.814c0.666,1.145,1.333,2.27,2.019,3.375c2.313-2.501,4.605-5.046,6.938-7.55
		c16.66-18.215,33.811-36.1,51.4-53.711l0.289-0.287c20.184-20.155,40.768-39.769,61.699-58.689
		c-0.651-0.336-1.317-0.69-2.004-1.049c278.598-247.019,639.381-403.436,1036.129-422.989c0.52-0.02,0.999-0.041,1.52-0.063
		c0,0.021,0,0.044,0,0.063c3.418-0.166,6.817-0.313,10.232-0.459c16.009-0.687,32.148-1.164,48.29-1.395
		c5.59-0.083,11.116-0.148,16.7-0.167c3.104-0.022,6.211-0.022,9.342-0.022h0.411c3.053,0,6.107,0,9.166,0.022
		c6.239,0.017,12.491,0.103,18.679,0.208c18.679,0.354,37.27,0.956,55.799,1.895
		C3255.625,777.107,3794.254,1152.72,4057.744,1688.117z"/>
	<path fill="#B9EDDB" stroke="#B9EDDB" stroke-width="11" stroke-miterlimit="10" d="M1766.995,2433.77
		c23.426-194.416,46.826-388.877,70.262-583.291c29.446-28.43,58.833-56.881,88.226-85.329l42.306,19.72
		c6.854,10.709,13.706,21.424,20.55,32.138c-28.496,26.929-56.967,53.855-85.433,80.808l32.052,535.955
		c-1.813,2.709-32.884,47.104-87.759,45.063C1796.984,2476.912,1769.725,2437.832,1766.995,2433.77z"/>
	<path fill="none" stroke="#B9EDDB" stroke-width="11" stroke-miterlimit="10" d="M1427.247,3152.219
		c-33.262,16.734-64.447,34.496-93.623,52.893c17.36,23.115,36.407,46.354,56.977,68.508
		c220.682,237.688,612.701,290.586,645.925,294.715c21.34,5.834,107.795,26.807,195.457-19.867
		c129.414-68.861,140.043-220.338,140.455-229.021c3.664-61.049,7.359-122.126,11.053-183.173
		c-86.147-41.325-193.898-80.504-327.104-97.032c-20.089-2.464-62.545-7.174-120.907-7.174
		C1814.948,3032.04,1626.6,3051.98,1427.247,3152.219"/>
	<path fill="none" stroke="#B9EDDB" stroke-width="45" stroke-miterlimit="10" d="M2383.459,3136.248
		c-3.664,61.049-7.33,122.11-11.021,183.163c-0.44,8.695-11.043,160.176-140.457,229.038
		c-87.659,46.668-174.116,25.703-195.457,19.868c-33.223-4.114-425.244-57.03-645.924-294.71
		c-20.568-22.157-39.615-45.4-56.977-68.512c29.176-18.383,60.359-36.145,93.623-52.901
		c295.915-148.772,567.551-120.635,629.137-113.003C2189.59,3055.716,2297.341,3094.924,2383.459,3136.248z"/>
	<path fill="none" stroke="#B9EDDB" stroke-width="11" stroke-miterlimit="10" d="M1422.133,1169.713
		c-20.922,18.923-41.511,38.535-61.714,58.689l-0.289,0.287c-17.592,17.594-34.741,35.494-51.4,53.711
		c-2.332,2.504-4.624,5.024-6.938,7.55c-0.666-1.105-1.332-2.231-2.019-3.375c38.142-41.25,78.318-80.578,120.341-117.867
		C1420.801,1169.021,1421.467,1169.376,1422.133,1169.713z"/>
	<path fill="none" stroke="#B9EDDB" stroke-width="11" stroke-miterlimit="10" d="M2516.311,743.799
		c-16.153,0.252-32.262,0.708-48.271,1.398c-3.438,0.164-6.839,0.311-10.253,0.458c0-0.022,0-0.044,0-0.063
		c2.926-0.146,5.814-0.271,8.711-0.419C2483.049,744.49,2499.637,744.007,2516.311,743.799z"/>
	<path fill="#B9EDDB" stroke="#B9EDDB" stroke-width="11" stroke-miterlimit="10" d="M4165.662,2898.863
		c0.495-38.77-0.314-79.354-2.813-121.512c-7.549-127.014-28.684-236.83-51.918-325.242c-15.177,24.513-32.395,50.668-51.836,77.928
		c1.965-31.826,2.979-63.919,2.979-96.27c0-62.425-3.756-123.974-11.064-184.436c-0.023-0.167-0.034-0.372-0.084-0.539
		c29.633,5.396,58.694,13.357,86.695,23.863c32.104,12.049,61.738,27.074,89.01,44.52c0,0.271,0,0.461,0.016,0.688
		c2.602,38.183,3.912,76.678,3.912,115.508C4230.585,2594.852,4207.934,2750.982,4165.662,2898.863"/>
	<path fill="#B9EDDB" stroke="#B9EDDB" stroke-width="11" stroke-miterlimit="10" d="M4165.662,2898.863
		c0.495-38.77-0.314-79.354-2.813-121.512c-7.549-127.014-28.684-236.83-51.918-325.242c-15.177,24.513-32.395,50.668-51.836,77.928
		c1.965-31.826,2.979-63.919,2.979-96.27c0-62.425-3.756-123.974-11.064-184.436c-0.023-0.167-0.034-0.372-0.084-0.539
		c29.633,5.396,58.694,13.357,86.695,23.863c32.104,12.049,61.738,27.074,89.01,44.52c0,0.271,0,0.461,0.016,0.688
		c2.602,38.183,3.912,76.678,3.912,115.508C4230.585,2594.852,4207.934,2750.982,4165.662,2898.863z"/>
	<path fill="none" stroke="#B9EDDB" stroke-width="11" stroke-miterlimit="10" d="M3562.697,3083.485
		c0.227,0.181,0.418,0.342,0.604,0.544c-78.477-1.303-189.766-16.788-287.035-88.563
		c-221.123-163.174-239.063-520.347-147.429-774.352c-91.425,253.985-73.337,610.76,147.606,773.827
		C3373.428,3066.475,3484.207,3082.138,3562.697,3083.485z"/>
	<path fill="none" stroke="#B9EDDB" stroke-width="45" stroke-miterlimit="10" d="M2852.703,3548.449
		c26.992,14.406,53.875,22.322,78.762,26.255c55.968,8.883,101.878-2.347,116.677-6.417
		c21.446-2.643,192.749-25.693,370.786-105.797c-208.45-41.824-289.663-102.317-498.295-105.693
		c-65.299-1.037-126.64,3.803-183.102,12.174c-6.924-6.079-13.924-12.174-21.07-18.169
		C2726.088,3400.821,2756.66,3497.386,2852.703,3548.449"/>
	<path fill="none" stroke="#B9EDDB" stroke-width="11" stroke-miterlimit="10" d="M4051.033,2249.334
		c-0.108-0.018-0.188-0.018-0.273-0.018c-157.111-28.642-330.744,14.814-456.882,129.222
		c-60.606,54.961-111.405,127.368-143.423,207.143c32.018-80.028,82.896-152.562,143.613-207.645
		c126.154-114.427,299.766-157.858,456.881-129.222C4050.984,2248.962,4051.009,2249.167,4051.033,2249.334z"/>
	<path fill="#B9EDDB" stroke="#B9EDDB" stroke-width="11" stroke-miterlimit="10" d="M2627.879,745.739
		c-19.013-0.962-38.117-1.587-57.311-1.901c-6.189-0.1-12.445-0.184-18.676-0.206c-3.063-0.018-6.127-0.018-9.199-0.018h-0.393
		c-3.104,0-6.229,0-9.314,0.018c-5.61,0.022-11.125,0.081-16.717,0.167c-16.654,0.208-33.285,0.691-49.813,1.398
		c-2.915,0.144-5.795,0.271-8.717,0.414c3.918-15.504,7.735-30.992,11.61-46.5h143.584
		C2617.938,714.645,2622.902,730.189,2627.879,745.739"/>
	<path fill="#B9EDDB" stroke="#B9EDDB" stroke-width="11" stroke-miterlimit="10" d="M2627.879,745.739
		c-19.013-0.962-38.117-1.587-57.311-1.901c-6.189-0.1-12.445-0.184-18.676-0.206c-3.063-0.018-6.127-0.018-9.199-0.018h-0.393
		c-3.104,0-6.229,0-9.314,0.018c-5.61,0.022-11.125,0.081-16.717,0.167c-16.654,0.208-33.285,0.691-49.813,1.398
		c-2.915,0.144-5.795,0.271-8.717,0.414c3.918-15.504,7.735-30.992,11.61-46.5h143.584
		C2617.938,714.645,2622.902,730.189,2627.879,745.739z"/>
	<path fill="none" stroke="#B9EDDB" stroke-width="11" stroke-miterlimit="10" d="M2516.311,743.799
		c-16.153,0.252-32.262,0.708-48.271,1.398c-3.438,0.164-6.839,0.311-10.253,0.458c0-0.022,0-0.044,0-0.063
		c2.926-0.146,5.814-0.271,8.711-0.419C2483.049,744.49,2499.637,744.007,2516.311,743.799z"/>
	<path fill="#B9EDDB" stroke="#B9EDDB" stroke-width="11" stroke-miterlimit="10" d="M2600.764,398.276
		c-20.023,71.822-31.154,111.006-25.968,166.466c3.876,40.975,15.112,73.99,24.446,96.21h-117.947
		c13.383-20.509,29.917-51.627,37-91.625c9.792-55.271-4.736-92.079-27.477-174.074c-34.371-123.902-51.291-186.892-38.184-238.204
		c11.757-45.854,45.896-113.859,93.154-116.052c45.718-2.143,89.425,58.005,103.822,111.445
		C2658.246,184.563,2654.203,206.257,2600.764,398.276"/>
	<path fill="none" stroke="#B9EDDB" stroke-width="11" stroke-miterlimit="10" d="M2600.764,398.276
		c-20.023,71.822-31.154,111.006-25.968,166.466c3.876,40.975,15.112,73.99,24.446,96.21h-117.947
		c13.383-20.509,29.917-51.627,37-91.625c9.792-55.271-4.736-92.079-27.477-174.074c-34.371-123.902-51.291-186.892-38.184-238.204
		c11.757-45.854,45.896-113.859,93.154-116.052c45.718-2.143,89.425,58.005,103.822,111.445
		C2658.246,184.563,2654.203,206.257,2600.764,398.276z"/>
	<path fill="#B9EDDB" stroke="#B9EDDB" stroke-width="11" stroke-miterlimit="10" d="M1420.114,1168.664
		c-42.021,37.291-82.199,76.639-120.341,117.866l-22.695-37.746l101.5-101.521
		C1392.438,1154.408,1406.32,1161.561,1420.114,1168.664"/>
	<path fill="#B9EDDB" stroke="#B9EDDB" stroke-width="11" stroke-miterlimit="10" d="M1420.114,1168.664
		c-42.021,37.291-82.199,76.639-120.341,117.866l-22.695-37.746l101.5-101.521
		C1392.438,1154.408,1406.32,1161.561,1420.114,1168.664z"/>
	<path fill="none" stroke="#B9EDDB" stroke-width="11" stroke-miterlimit="10" d="M1422.133,1169.713
		c-20.922,18.923-41.511,38.535-61.714,58.689l-0.289,0.287c-17.592,17.594-34.741,35.494-51.4,53.711
		c-2.332,2.504-4.624,5.024-6.938,7.55c-0.666-1.105-1.332-2.231-2.019-3.375c38.142-41.25,78.318-80.578,120.341-117.867
		C1420.801,1169.021,1421.467,1169.376,1422.133,1169.713z"/>
	<path fill="#B9EDDB" stroke="#B9EDDB" stroke-width="11" stroke-miterlimit="10" d="M1341.917,1130.003
		c-27.805,27.825-55.585,55.61-83.39,83.395c-5.043-23.971-15.365-57.63-38.645-90.936c-32.16-46.001-68.466-61.818-142.5-103.65
		c-111.964-63.316-168.466-95.916-195.455-141.457c-24.159-40.746-48.064-112.96-16.214-147.938
		c30.825-33.823,104.251-22.216,152.248,5.4c28.824,16.568,41.313,34.803,139.292,208.398
		c36.645,64.925,56.443,100.523,99.313,136.036C1288.291,1105.493,1319.594,1120.896,1341.917,1130.003"/>
	<path fill="none" stroke="#B9EDDB" stroke-width="11" stroke-miterlimit="10" d="M1341.917,1130.003
		c-27.805,27.825-55.585,55.61-83.39,83.395c-5.043-23.971-15.365-57.63-38.645-90.936c-32.16-46.001-68.466-61.818-142.5-103.65
		c-111.964-63.316-168.466-95.916-195.455-141.457c-24.159-40.746-48.064-112.96-16.214-147.938
		c30.825-33.823,104.251-22.216,152.248,5.4c28.824,16.568,41.313,34.803,139.292,208.398
		c36.645,64.925,56.443,100.523,99.313,136.036C1288.291,1105.493,1319.594,1120.896,1341.917,1130.003z"/>
	<path fill="#B9EDDB" stroke="#B9EDDB" stroke-width="11" stroke-miterlimit="10" d="M3824.95,1248.806
		c-8.235,13.714-16.466,27.431-24.7,41.12c-2.287-2.499-4.604-5.021-6.917-7.544c-16.651-18.213-33.806-36.098-51.397-53.709
		l-0.308-0.294c-20.147-20.156-40.772-39.765-61.695-58.689c14.511-7.46,28.99-14.943,43.481-22.423L3824.95,1248.806z"/>
	<path fill="#B9EDDB" stroke="#B9EDDB" stroke-width="11" stroke-miterlimit="10" d="M3824.95,1248.806
		c-8.235,13.714-16.466,27.431-24.7,41.12c-2.287-2.499-4.604-5.021-6.917-7.544c-16.651-18.213-33.806-36.098-51.397-53.709
		l-0.308-0.294c-20.147-20.156-40.772-39.765-61.695-58.689c14.511-7.46,28.99-14.943,43.481-22.423L3824.95,1248.806z"/>
	<path fill="#B9EDDB" stroke="#B9EDDB" stroke-width="11" stroke-miterlimit="10" d="M4220.145,877.354
		c-27.035,45.541-83.537,78.142-195.461,141.457c-74.05,41.852-110.355,57.65-142.518,103.651
		c-23.26,33.306-33.563,66.965-38.643,90.935l-83.363-83.394c22.315-9.104,53.6-24.485,85.301-50.75
		c42.893-35.513,62.691-71.112,99.314-136.036c98.021-173.597,110.484-191.81,139.291-208.398
		c47.996-27.616,121.4-39.226,152.229-5.4C4268.188,764.393,4244.262,836.605,4220.145,877.354"/>
	<path fill="none" stroke="#B9EDDB" stroke-width="11" stroke-miterlimit="10" d="M4220.145,877.354
		c-27.035,45.541-83.537,78.142-195.461,141.457c-74.05,41.852-110.355,57.65-142.518,103.651
		c-23.26,33.306-33.563,66.965-38.643,90.935l-83.363-83.394c22.315-9.104,53.6-24.485,85.301-50.75
		c42.893-35.513,62.691-71.112,99.314-136.036c98.021-173.597,110.484-191.81,139.291-208.398
		c47.996-27.616,121.4-39.226,152.229-5.4C4268.188,764.393,4244.262,836.605,4220.145,877.354z"/>
	<path fill="#B9EDDB" stroke="#B9EDDB" stroke-width="11" stroke-miterlimit="10" d="M850.271,2516.031
		c0.16,3.416,0.33,6.857,0.477,10.209c-15.572-3.855-31.052-7.69-46.604-11.609v-143.558c15.552-4.979,31.095-9.938,46.644-14.921
		c-1.394,28.195-2.122,56.604-2.122,85.16v0.396C848.684,2466.614,849.188,2491.417,850.271,2516.031"/>
	<path fill="#B9EDDB" stroke="#B9EDDB" stroke-width="11" stroke-miterlimit="10" d="M850.271,2516.031
		c0.16,3.416,0.33,6.857,0.477,10.209c-15.572-3.855-31.052-7.69-46.604-11.609v-143.558c15.552-4.979,31.095-9.938,46.644-14.921
		c-1.394,28.195-2.122,56.604-2.122,85.16v0.396C848.684,2466.614,849.188,2491.417,850.271,2516.031z"/>
	<path fill="#B9EDDB" stroke="#B9EDDB" stroke-width="11" stroke-miterlimit="10" d="M766.004,2384.852v117.905
		c-20.486-13.36-51.585-29.907-91.601-36.975c-55.272-9.796-92.083,4.753-174.101,27.469
		c-123.903,34.392-186.889,51.271-238.203,38.179c-45.873-11.708-113.842-45.889-116.047-93.158
		c-2.15-45.688,58-89.395,111.465-103.814c32.096-8.652,53.79-4.604,245.852,48.874c71.819,20.009,111.004,31.185,166.444,25.971
		C710.749,2405.423,743.833,2394.171,766.004,2384.852"/>
	<path fill="none" stroke="#B9EDDB" stroke-width="11" stroke-miterlimit="10" d="M766.004,2384.852v117.905
		c-20.486-13.36-51.585-29.907-91.601-36.975c-55.272-9.796-92.083,4.753-174.101,27.469
		c-123.903,34.392-186.889,51.271-238.203,38.179c-45.873-11.708-113.842-45.889-116.047-93.158
		c-2.15-45.688,58-89.395,111.465-103.814c32.096-8.652,53.79-4.604,245.852,48.874c71.819,20.009,111.004,31.185,166.444,25.971
		C710.749,2405.423,743.833,2394.171,766.004,2384.852z"/>
	<path fill="none" stroke="#B9EDDB" stroke-width="45" stroke-miterlimit="10" d="M2491.176,1455.708
		c-64.756,48.581-140.459,61.628-186.751,36.305c-10.149-5.479-18.836-12.797-25.675-21.942
		c-17.841-23.764-20.344-55.693-10.148-89.039v-0.024c11.924-38.643,40.918-79.141,83.242-110.901
		c22.803-17.13,47.022-29.845,70.78-37.995c55.399-19.026,108.565-13.439,137.208,18.28c1.563,1.732,3.045,3.502,4.438,5.376
		C2602.744,1306.997,2569.98,1396.532,2491.176,1455.708z"/>
	<g>
		<path fill="#1E0E06" stroke="#B9EDDB" stroke-width="11" stroke-miterlimit="10" d="M2491.176,1455.708
			c-64.756,48.581-140.459,61.628-186.751,36.305c-10.149-5.479-18.836-12.797-25.675-21.942
			c-17.841-23.764-20.344-55.693-10.148-89.039v-0.024c11.924-38.643,40.918-79.141,83.242-110.901
			c22.803-17.13,47.022-29.845,70.78-37.995c55.399-19.026,108.565-13.439,137.208,18.28c1.563,1.732,3.045,3.502,4.438,5.376
			C2602.744,1306.997,2569.98,1396.532,2491.176,1455.708"/>
		<path fill="#1E0E06" stroke="#B9EDDB" stroke-width="11" stroke-miterlimit="10" d="M2537.38,2193.27
			c-1.019,396.498-2.057,793.002-3.055,1189.511c20.882-406.696,41.726-813.37,62.604-1220.063
			C2577.064,2172.91,2557.244,2183.079,2537.38,2193.27"/>
		<path fill="#1E0E06" stroke="#B9EDDB" stroke-width="11" stroke-miterlimit="10" d="M976.824,2512.422
			c-2.915,59.362-2.292,128.908,6.086,206.117c7.544,69.59,19.92,131.592,33.576,184.738c-15.735,25.636-33.081,58.84-47.358,99.254
			c-11.749,33.445-18.71,64.146-22.879,90.12c-3.438-80.812-3.982-168.132,0-261.109
			C951.229,2715.721,962.398,2608.926,976.824,2512.422"/>
		<path fill="#1E0E06" stroke="#B9EDDB" stroke-width="11" stroke-miterlimit="10" d="M1060.755,2959.798
			c20.966,56.192,53.273,131.646,102.316,215.321c23.815,40.605,125.47,209.11,320.657,374.102
			c404.396,341.817,871.623,382.178,1012.386,392.437c134.542,9.813,227.456,0.856,250.444-1.522
			c261.211-26.903,458.918-127.326,574.141-198.5c-94.064,68.571-227.139,150.731-398.552,215.304
			c-140.283,52.924-267.738,79.475-369.507,93.146c-4.582,92.119-9.19,184.243-13.771,276.384
			c-84.232-175.76-186.395-263.694-264.137-311.508c-77.223-47.497-121.281-49.875-290.146-122.179
			c-53.13-22.731-182.543-78.156-294.714-143.556c-101.628-59.233-349.834-207.881-513.09-497.774
			C1111.672,3135.794,1078.511,3030.367,1060.755,2959.798"/>
		<path fill="#1E0E06" stroke="#B9EDDB" stroke-width="11" stroke-miterlimit="10" d="M4108.656,2527.657
			c3.857,56.884,3.857,125.768-6.086,203.112c-7.254,56.297-18.391,106.443-30.597,149.672
			c12.025,18.855,25.597,43.864,36.683,74.814c12.006,33.497,17.358,63.584,19.856,87.015
			c7.776-62.17,12.808-132.319,12.217-209.167C4139.82,2715.846,4126.002,2612.756,4108.656,2527.657"/>
		<path fill="#1E0E06" stroke="#B9EDDB" stroke-width="11" stroke-miterlimit="10" d="M2557.244,75.328
			c12.689,21.655,26.02,49.749,35.134,83.993c22.915,86.266,5.496,160.363-6.103,196.959
			c40.496-64.525,48.646-121.529,50.383-152.648c2.041-36.911,4.956-89.142-29.017-114.548
			C2590.825,76.491,2570.779,74.845,2557.244,75.328"/>
		<path fill="#1E0E06" stroke="#B9EDDB" stroke-width="11" stroke-miterlimit="10" d="M1091.33,883.11
			c-17.525-24.471-51.838-65.343-108.42-96.212c-39.647-21.631-76.512-30.864-102.294-35.119
			c8.104-7.48,27.969-23.653,56.462-25.948c30.306-2.459,52.729,12.131,68.716,22.884
			C1065.257,788.695,1085.163,857.14,1091.33,883.11"/>
		<path fill="#1E0E06" stroke="#B9EDDB" stroke-width="11" stroke-miterlimit="10" d="M4091.863,941.154
			c16.189-6.711,70.688-31.66,102.308-93.187c21.242-41.374,22.241-80.057,21.383-99.254c6.897,8.717,18.733,26.179,21.386,50.4
			c3.98,36.934-16.111,64.42-25.986,77.862C4172.064,930.233,4107.695,939.342,4091.863,941.154"/>
		<path fill="#1E0E06" stroke="#B9EDDB" stroke-width="11" stroke-miterlimit="10" d="M178.192,2407.049
			c14.213-14.921,35.721-33.184,65.649-45.79c87.875-37.059,173.136,6.025,187.83,13.736
			c-62.814-16.051-101.956-6.006-126.741,7.624c-32.41,17.885-51.142,47.921-83.974,45.793
			C202.387,2427.225,187.776,2416.302,178.192,2407.049"/>
		<path fill="#1E0E06" stroke="#B9EDDB" stroke-width="11" stroke-miterlimit="10" d="M2490.888,1456.021
			c-64.69,48.623-140.446,61.627-186.728,36.326c-10.111-5.462-18.803-12.798-25.655-21.946
			c-17.807-23.763-20.344-55.69-10.134-89.036v-0.022c11.883-38.621,40.932-79.138,83.247-110.899
			c22.8-17.135,46.999-29.828,70.758-37.977c55.397-19.05,108.569-13.466,137.231,18.258c1.53,1.729,3.018,3.483,4.412,5.381
			C2602.488,1307.33,2569.777,1396.846,2490.888,1456.021"/>
	</g>
</g>
</svg>
