<?xml version="1.0" encoding="utf-8"?>
<!-- Generator: Adobe Illustrator 16.0.0, SVG Export Plug-In . SVG Version: 6.00 Build 0)  -->
<!DOCTYPE svg PUBLIC "-//W3C//DTD SVG 1.1//EN" "http://www.w3.org/Graphics/SVG/1.1/DTD/svg11.dtd">
<svg version="1.1" id="Layer_1" xmlns="http://www.w3.org/2000/svg" xmlns:xlink="http://www.w3.org/1999/xlink" x="0px" y="0px"
	 width="426.594px" height="425.094px" viewBox="0 0 426.594 425.094" enable-background="new 0 0 426.594 425.094"
	 xml:space="preserve">
<g id="XMLID_2080_">
	<path id="XMLID_2082_" fill="none" stroke="#B9EDDB" stroke-width="8" stroke-miterlimit="10" d="M212.938,412.914L212.938,412.914
		c-111.946,0-202.703-90.757-202.703-202.708l0,0c0-111.95,90.757-202.702,202.703-202.702l0,0
		c111.956,0,202.713,90.752,202.713,202.702l0,0C415.651,322.156,324.894,412.914,212.938,412.914z"/>
	<path id="XMLID_2081_" fill="#B9EDDB" d="M182.055,332.73h49.347V209.165h34.42l3.672-41.374h-38.092c0,0,0-15.447,0-23.561
		c0-9.757,1.956-13.611,11.39-13.611c7.583,0,26.702,0,26.702,0V87.681c0,0-28.148,0-34.16,0c-36.719,0-53.279,16.175-53.279,47.126
		c0,26.961,0,32.984,0,32.984h-25.662v41.894h25.662V332.73z"/>
</g>
</svg>
