<?xml version="1.0" encoding="utf-8"?>
<!-- Generator: Adobe Illustrator 16.0.0, SVG Export Plug-In . SVG Version: 6.00 Build 0)  -->
<!DOCTYPE svg PUBLIC "-//W3C//DTD SVG 1.1//EN" "http://www.w3.org/Graphics/SVG/1.1/DTD/svg11.dtd">
<svg version="1.1" id="Layer_1" xmlns="http://www.w3.org/2000/svg" xmlns:xlink="http://www.w3.org/1999/xlink" x="0px" y="0px"
	 width="1303px" height="1300px" viewBox="0 0 1303 1300" enable-background="new 0 0 1303 1300" xml:space="preserve">
<g>
	<path fill="#42210B" stroke="#42210B" stroke-miterlimit="10" d="M309.544,965.852c-0.092,0.09-0.183,0.176-0.274,0.261
		c7.592,8.141,15.475,16.007,23.631,23.578c0.076-0.083,0.155-0.165,0.233-0.247c-4.02-3.738-7.979-7.563-11.896-11.474l-0.221-0.22
		C317.107,973.834,313.283,969.873,309.544,965.852"/>
	<path fill="#42210B" stroke="#42210B" stroke-miterlimit="10" d="M962.878,311.252c-0.003,0.006-0.01,0.014-0.016,0.019
		c4.021,3.74,7.984,7.564,11.897,11.471l0.224,0.224c3.905,3.914,7.73,7.876,11.47,11.897l0.037-0.039
		C978.901,326.687,971.026,318.823,962.878,311.252"/>
	<path fill="#42210B" stroke="#42210B" stroke-miterlimit="10" d="M986.453,965.852c-3.739,4.021-7.564,7.98-11.47,11.898
		l-0.224,0.22c-3.913,3.91-7.877,7.734-11.897,11.474c0.03,0.031,0.06,0.063,0.088,0.095c8.151-7.576,16.028-15.443,23.609-23.585
		C986.525,965.923,986.487,965.887,986.453,965.852"/>
	<path fill="#42210B" stroke="#42210B" stroke-miterlimit="10" d="M237.28,672.77c0.077,1.56,0.173,3.111,0.273,4.664
		C237.456,675.881,237.361,674.329,237.28,672.77"/>
	<path fill="#42210B" stroke="#42210B" stroke-miterlimit="10" d="M325.949,634.728c-0.353,1.313-0.693,2.634-1.027,3.955
		C325.256,637.36,325.6,636.041,325.949,634.728 M324.922,638.683c-0.082,0.325-0.163,0.65-0.244,0.977
		C324.759,639.334,324.84,639.008,324.922,638.683"/>
	<path fill="#42210B" stroke="#42210B" stroke-miterlimit="10" d="M236.689,648.041c-0.003,0.107-0.003,0.213-0.003,0.321
		c-0.001,0.17-0.003,0.34-0.003,0.51C236.686,648.595,236.687,648.317,236.689,648.041 M236.684,648.872
		c-0.002,0.519-0.004,1.039-0.004,1.557C236.68,649.911,236.682,649.391,236.684,648.872"/>
	<path fill="#42210B" stroke="#42210B" stroke-miterlimit="10" d="M236.725,656.405c0,0.191,0.003,0.382,0.006,0.574
		c0.003,0.124,0.006,0.25,0.009,0.372C236.733,657.036,236.728,656.721,236.725,656.405"/>
	<path fill="#42210B" stroke="#42210B" stroke-miterlimit="10" d="M236.835,639.079c-0.002,0.04-0.003,0.081-0.004,0.123
		C236.833,639.16,236.834,639.12,236.835,639.079 M236.831,639.201c-0.001,0.048-0.002,0.094-0.003,0.143
		c0.001-0.023,0.002-0.047,0.003-0.07C236.831,639.25,236.831,639.226,236.831,639.201 M236.828,639.343
		c-0.002,0.04-0.003,0.081-0.003,0.123C236.826,639.425,236.827,639.384,236.828,639.343"/>
	<path fill="#42210B" stroke="#42210B" stroke-miterlimit="10" d="M236.851,662.224c0.003,0.148,0.006,0.294,0.009,0.441
		c0.003,0.063,0.003,0.127,0.007,0.189C236.859,662.644,236.856,662.435,236.851,662.224"/>
	<path fill="#42210B" stroke="#42210B" stroke-miterlimit="10" d="M237.024,633.48c-0.013,0.253-0.023,0.501-0.032,0.754
		c-0.003,0.097-0.006,0.195-0.009,0.293C236.996,634.178,237.008,633.831,237.024,633.48"/>
	<path fill="#42210B" stroke="#42210B" stroke-miterlimit="10" d="M237.153,670.239c0.019,0.518,0.044,1.032,0.072,1.545
		c0.016,0.329,0.035,0.658,0.055,0.985c-0.022-0.422-0.045-0.842-0.067-1.266C237.19,671.084,237.172,670.662,237.153,670.239"/>
	<path fill="#42210B" stroke="#42210B" stroke-miterlimit="10" d="M238.132,615.651c-0.016,0.171-0.029,0.342-0.045,0.512
		c-0.021,0.27-0.043,0.542-0.064,0.813C238.059,616.534,238.095,616.094,238.132,615.651 M238.022,616.977
		c-0.022,0.281-0.045,0.564-0.067,0.847C237.978,617.542,238.001,617.258,238.022,616.977"/>
	<path fill="#42210B" stroke="#42210B" stroke-miterlimit="10" d="M239.016,606.365c-0.079,0.723-0.152,1.442-0.228,2.165
		c-0.016,0.17-0.035,0.341-0.051,0.508c-0.013,0.126-0.025,0.25-0.034,0.373C238.804,608.395,238.907,607.381,239.016,606.365"/>
	<path fill="#42210B" stroke="#42210B" stroke-miterlimit="10" d="M239.364,603.197c-0.06,0.512-0.116,1.026-0.172,1.54
		c-0.032,0.256-0.057,0.511-0.087,0.77c-0.016,0.151-0.03,0.302-0.046,0.452c0.003-0.033,0.007-0.067,0.013-0.102
		C239.166,604.971,239.265,604.084,239.364,603.197 M239.06,605.958c-0.004,0.029-0.007,0.057-0.011,0.085
		C239.053,606.015,239.057,605.987,239.06,605.958"/>
	<path fill="#42210B" stroke="#42210B" stroke-miterlimit="10" d="M239.669,600.625c-0.007,0.041-0.014,0.082-0.017,0.123
		c-0.031,0.256-0.063,0.512-0.092,0.768c-0.013,0.091-0.021,0.187-0.031,0.278c-0.057,0.466-0.11,0.934-0.164,1.403
		c0.099-0.849,0.199-1.701,0.304-2.55V600.625z"/>
	<path fill="#42210B" stroke="#42210B" stroke-miterlimit="10" d="M240.918,591.181c-0.25,1.72-0.489,3.446-0.714,5.175
		C240.433,594.627,240.672,592.901,240.918,591.181"/>
	<path fill="#42210B" stroke="#42210B" stroke-miterlimit="10" d="M237.28,672.77c0.077,1.56,0.173,3.111,0.273,4.664
		C237.456,675.881,237.361,674.329,237.28,672.77"/>
	<path fill="#42210B" stroke="#42210B" stroke-miterlimit="10" d="M325.949,634.728c-0.353,1.313-0.693,2.634-1.027,3.955
		C325.256,637.36,325.6,636.041,325.949,634.728 M324.922,638.683c-0.082,0.325-0.163,0.65-0.244,0.977
		C324.759,639.334,324.84,639.008,324.922,638.683"/>
	<path fill="#42210B" stroke="#42210B" stroke-miterlimit="10" d="M236.689,648.041c-0.003,0.107-0.003,0.213-0.003,0.321
		c-0.001,0.17-0.003,0.34-0.003,0.51C236.686,648.595,236.687,648.317,236.689,648.041 M236.684,648.872
		c-0.002,0.519-0.004,1.039-0.004,1.557C236.68,649.911,236.682,649.391,236.684,648.872"/>
	<path fill="#42210B" stroke="#42210B" stroke-miterlimit="10" d="M236.725,656.405c0,0.191,0.003,0.382,0.006,0.574
		c0.003,0.124,0.006,0.25,0.009,0.372C236.733,657.036,236.728,656.721,236.725,656.405"/>
	<path fill="#42210B" stroke="#42210B" stroke-miterlimit="10" d="M236.835,639.079c-0.002,0.04-0.003,0.081-0.004,0.123
		C236.833,639.16,236.834,639.12,236.835,639.079 M236.831,639.201c-0.001,0.048-0.002,0.094-0.003,0.143
		c0.001-0.023,0.002-0.047,0.003-0.07C236.831,639.25,236.831,639.226,236.831,639.201 M236.828,639.343
		c-0.002,0.04-0.003,0.081-0.003,0.123C236.826,639.425,236.827,639.384,236.828,639.343"/>
	<path fill="#42210B" stroke="#42210B" stroke-miterlimit="10" d="M236.851,662.224c0.003,0.148,0.006,0.294,0.009,0.441
		c0.003,0.063,0.003,0.127,0.007,0.189C236.859,662.644,236.856,662.435,236.851,662.224"/>
	<path fill="#42210B" stroke="#42210B" stroke-miterlimit="10" d="M237.024,633.48c-0.013,0.253-0.023,0.501-0.032,0.754
		c-0.003,0.097-0.006,0.195-0.009,0.293C236.996,634.178,237.008,633.831,237.024,633.48"/>
	<path fill="#42210B" stroke="#42210B" stroke-miterlimit="10" d="M237.153,670.239c0.019,0.518,0.044,1.032,0.072,1.545
		c0.016,0.329,0.035,0.658,0.055,0.985c-0.022-0.422-0.045-0.842-0.067-1.266C237.19,671.084,237.172,670.662,237.153,670.239"/>
	<path fill="#42210B" stroke="#42210B" stroke-miterlimit="10" d="M238.132,615.651c-0.016,0.171-0.029,0.342-0.045,0.512
		c-0.021,0.27-0.043,0.542-0.064,0.813C238.059,616.534,238.095,616.094,238.132,615.651 M238.022,616.977
		c-0.022,0.281-0.045,0.564-0.067,0.847C237.978,617.542,238.001,617.258,238.022,616.977"/>
	<path fill="#42210B" stroke="#42210B" stroke-miterlimit="10" d="M239.016,606.365c-0.079,0.723-0.152,1.442-0.228,2.165
		c-0.016,0.17-0.035,0.341-0.051,0.508c-0.013,0.126-0.025,0.25-0.034,0.373C238.804,608.395,238.907,607.381,239.016,606.365"/>
	<path fill="#42210B" stroke="#42210B" stroke-miterlimit="10" d="M239.364,603.197c-0.06,0.512-0.116,1.026-0.172,1.54
		c-0.032,0.256-0.057,0.511-0.087,0.77c-0.016,0.151-0.03,0.302-0.046,0.452c0.003-0.033,0.007-0.067,0.013-0.102
		C239.166,604.971,239.265,604.084,239.364,603.197 M239.06,605.958c-0.004,0.029-0.007,0.057-0.011,0.085
		C239.053,606.015,239.057,605.987,239.06,605.958"/>
	<path fill="#42210B" stroke="#42210B" stroke-miterlimit="10" d="M239.669,600.625c-0.007,0.041-0.014,0.082-0.017,0.123
		c-0.031,0.256-0.063,0.512-0.092,0.768c-0.013,0.091-0.021,0.187-0.031,0.278c-0.057,0.466-0.11,0.934-0.164,1.403
		c0.099-0.849,0.199-1.701,0.304-2.55V600.625z"/>
	<path fill="#42210B" stroke="#42210B" stroke-miterlimit="10" d="M240.918,591.181c-0.25,1.72-0.489,3.446-0.714,5.175
		C240.433,594.627,240.672,592.901,240.918,591.181"/>
	<path fill="#42210B" stroke="#42210B" stroke-width="6" stroke-miterlimit="10" d="M648,8.125v0.06
		c-0.054-0.01-0.107-0.019-0.158-0.031C647.896,8.145,647.949,8.135,648,8.125z"/>
	<path fill="#42210B" stroke="#42210B" stroke-width="6" stroke-miterlimit="10" d="M647.842,152.645H648v0.003
		C647.946,152.648,647.896,152.648,647.842,152.645z"/>
	<path fill="#42210B" stroke="#42210B" stroke-miterlimit="10" d="M674.822,161.167c-3.128,3.755-8.921,11.856-10.099,23.351
		c-0.117,1.137-0.18,2.238-0.201,3.298c-5.484-0.198-10.991-0.296-16.523-0.3h-0.314c-5.533,0.004-11.038,0.102-16.522,0.3
		c-0.022-1.06-0.085-2.161-0.201-3.298c-1.178-11.495-6.97-19.596-10.099-23.351H674.822z"/>
	<path fill="#42210B" stroke="#42210B" stroke-width="6" stroke-miterlimit="10" d="M674.822,161.167
		c-3.128,3.755-8.921,11.856-10.099,23.351c-0.117,1.137-0.18,2.238-0.201,3.298c-5.484-0.198-10.991-0.296-16.523-0.3h-0.314
		c-5.533,0.004-11.038,0.102-16.522,0.3c-0.022-1.06-0.085-2.161-0.201-3.298c-1.178-11.495-6.97-19.596-10.099-23.351H674.822z"/>
	<path fill="#42210B" stroke="#42210B" stroke-miterlimit="10" d="M674.191,152.332c-8.732,0.104-17.46,0.208-26.191,0.313h-0.315
		c-8.731-0.104-17.459-0.209-26.191-0.313c3.813-8.706,9.735-25.796,6.628-46.702c-1.126-7.558-3.191-14.022-5.365-19.248
		c-14.596-19.713-15.736-44.541-3.787-60.902c9.302-12.735,23.581-16.294,28.716-17.295c0.054-0.01,0.106-0.019,0.157-0.031
		c0.051,0.012,0.104,0.021,0.157,0.031c5.134,1,19.413,4.56,28.717,17.295c11.949,16.361,10.807,41.189-3.787,60.902
		c-2.175,5.226-4.242,11.69-5.365,19.248C664.456,126.536,670.378,143.626,674.191,152.332"/>
	<path fill="#42210B" stroke="#42210B" stroke-width="6" stroke-miterlimit="10" d="M674.191,152.332
		c-8.732,0.104-17.46,0.208-26.191,0.313h-0.315c-8.731-0.104-17.459-0.209-26.191-0.313c3.813-8.706,9.735-25.796,6.628-46.702
		c-1.126-7.558-3.191-14.022-5.365-19.248c-14.596-19.713-15.736-44.541-3.787-60.902c9.302-12.735,23.581-16.294,28.716-17.295
		c0.054-0.01,0.106-0.019,0.157-0.031c0.051,0.012,0.104,0.021,0.157,0.031c5.134,1,19.413,4.56,28.717,17.295
		c11.949,16.361,10.807,41.189-3.787,60.902c-2.175,5.226-4.242,11.69-5.365,19.248
		C664.456,126.536,670.378,143.626,674.191,152.332z"/>
	<path fill="#42210B" stroke="#42210B" stroke-miterlimit="10" d="M158.496,623.534c3.755,3.127,11.855,8.921,23.351,10.097
		c1.136,0.117,2.237,0.181,3.298,0.203c-0.199,5.484-0.297,10.991-0.301,16.522v0.315c0.004,5.532,0.102,11.038,0.301,16.523
		c-1.061,0.021-2.162,0.083-3.298,0.2c-11.496,1.178-19.596,6.971-23.351,10.099V623.534z"/>
	<path fill="#42210B" stroke="#42210B" stroke-width="6" stroke-miterlimit="10" d="M158.496,623.534
		c3.755,3.127,11.855,8.921,23.351,10.097c1.136,0.117,2.237,0.181,3.298,0.203c-0.199,5.484-0.297,10.991-0.301,16.522v0.315
		c0.004,5.532,0.102,11.038,0.301,16.523c-1.061,0.021-2.162,0.083-3.298,0.2c-11.496,1.178-19.596,6.971-23.351,10.099V623.534z"/>
	<path fill="#42210B" stroke="#42210B" stroke-miterlimit="10" d="M149.66,624.165c0.104,8.732,0.209,17.459,0.313,26.191v0.315
		c-0.104,8.731-0.208,17.46-0.313,26.191c-8.705-3.813-25.795-9.735-46.701-6.627c-7.558,1.124-14.022,3.19-19.248,5.364
		c-19.713,14.594-44.54,15.737-60.901,3.787c-12.736-9.302-16.295-23.581-17.296-28.715c-0.009-0.054-0.019-0.107-0.031-0.157
		c0.013-0.05,0.022-0.104,0.031-0.158c1.001-5.134,4.56-19.413,17.296-28.715c16.361-11.949,41.188-10.808,60.901,3.787
		c5.226,2.174,11.69,4.241,19.248,5.364C123.864,633.9,140.955,627.977,149.66,624.165"/>
	<path fill="#42210B" stroke="#42210B" stroke-width="6" stroke-miterlimit="10" d="M149.66,624.165
		c0.104,8.732,0.209,17.459,0.313,26.191v0.315c-0.104,8.731-0.208,17.46-0.313,26.191c-8.705-3.813-25.795-9.735-46.701-6.627
		c-7.558,1.124-14.022,3.19-19.248,5.364c-19.713,14.594-44.54,15.737-60.901,3.787c-12.736-9.302-16.295-23.581-17.296-28.715
		c-0.009-0.054-0.019-0.107-0.031-0.157c0.013-0.05,0.022-0.104,0.031-0.158c1.001-5.134,4.56-19.413,17.296-28.715
		c16.361-11.949,41.188-10.808,60.901,3.787c5.226,2.174,11.69,4.241,19.248,5.364C123.864,633.9,140.955,627.977,149.66,624.165z"
		/>
	<path fill="#42210B" stroke="#42210B" stroke-miterlimit="10" d="M1137.504,677.494c-3.755-3.127-11.855-8.92-23.35-10.099
		c-1.137-0.116-2.238-0.179-3.298-0.2c0.198-5.485,0.296-10.992,0.299-16.523v-0.316c-0.003-5.531-0.101-11.037-0.299-16.521
		c1.059-0.022,2.161-0.085,3.298-0.203c11.494-1.176,19.595-6.97,23.35-10.097V677.494z"/>
	<path fill="#42210B" stroke="#42210B" stroke-width="6" stroke-miterlimit="10" d="M1137.504,677.494
		c-3.755-3.127-11.855-8.92-23.35-10.099c-1.137-0.116-2.238-0.179-3.298-0.2c0.198-5.485,0.296-10.992,0.299-16.523v-0.316
		c-0.003-5.531-0.101-11.037-0.299-16.521c1.059-0.022,2.161-0.085,3.298-0.203c11.494-1.176,19.595-6.97,23.35-10.097V677.494z"/>
	<path fill="#42210B" stroke="#42210B" stroke-miterlimit="10" d="M1146.34,676.863c-0.104-8.732-0.21-17.46-0.313-26.191v-0.316
		c0.104-8.731,0.209-17.459,0.313-26.19c8.705,3.812,25.796,9.735,46.7,6.625c7.558-1.122,14.023-3.189,19.249-5.364
		c19.714-14.594,44.54-15.736,60.901-3.787c12.737,9.303,16.295,23.582,17.296,28.715c0.01,0.054,0.019,0.108,0.031,0.157
		c-0.013,0.052-0.021,0.104-0.031,0.159c-1.001,5.134-4.559,19.413-17.296,28.715c-16.361,11.95-41.188,10.808-60.901-3.787
		c-5.226-2.175-11.691-4.241-19.249-5.364C1172.136,667.128,1155.045,673.05,1146.34,676.863"/>
	<path fill="#42210B" stroke="#42210B" stroke-width="6" stroke-miterlimit="10" d="M1146.34,676.863
		c-0.104-8.732-0.21-17.46-0.313-26.191v-0.316c0.104-8.731,0.209-17.459,0.313-26.19c8.705,3.812,25.796,9.735,46.7,6.625
		c7.558-1.122,14.023-3.189,19.249-5.364c19.714-14.594,44.54-15.736,60.901-3.787c12.737,9.303,16.295,23.582,17.296,28.715
		c0.01,0.054,0.019,0.108,0.031,0.157c-0.013,0.052-0.021,0.104-0.031,0.159c-1.001,5.134-4.559,19.413-17.296,28.715
		c-16.361,11.95-41.188,10.808-60.901-3.787c-5.226-2.175-11.691-4.241-19.249-5.364
		C1172.136,667.128,1155.045,673.05,1146.34,676.863z"/>
	<path fill="#42210B" stroke="#42210B" stroke-width="6" stroke-miterlimit="10" d="M1012.578,323.3
		c-4.866,0.446-14.689,2.077-23.65,9.372c-0.758,0.616-1.471,1.243-2.14,1.875c-0.103,0.092-0.2,0.186-0.298,0.277l-0.037,0.039
		c-3.739-4.021-7.564-7.983-11.47-11.897l-0.224-0.224c-3.913-3.907-7.877-7.73-11.897-11.471c0.006-0.006,0.013-0.012,0.016-0.019
		c0.733-0.757,1.461-1.574,2.174-2.455c7.296-8.962,8.929-18.785,9.372-23.65l0.578,0.578L1012.578,323.3z"/>
	<path fill="#42210B" stroke="#42210B" stroke-width="6" stroke-miterlimit="10" d="M1018.38,316.607
		c-6.247-6.1-12.493-12.199-18.74-18.298l-0.224-0.224c-6.1-6.247-12.197-12.493-18.298-18.74
		c8.852-3.46,25.124-11.358,37.708-28.337c4.551-6.138,7.66-12.172,9.818-17.405c3.619-24.258,20.365-42.622,40.385-45.741
		c15.585-2.427,28.198,5.153,32.536,8.076c0.044,0.03,0.09,0.062,0.134,0.089c0.025,0.044,0.058,0.089,0.089,0.134
		c2.922,4.338,10.502,16.951,8.075,32.534c-3.119,20.019-21.482,36.767-45.741,40.386c-5.231,2.158-11.268,5.268-17.403,9.817
		C1029.737,291.483,1021.841,307.756,1018.38,316.607z"/>
	<path fill="#42210B" stroke="#42210B" stroke-width="6" stroke-miterlimit="10" d="M1013.207,977.415l-38.151,38.153
		c-0.017-0.186-0.035-0.379-0.054-0.577c-0.524-5.036-2.302-14.452-9.319-23.073c-0.719-0.887-1.452-1.711-2.189-2.474
		c4.021-3.739,7.984-7.563,11.896-11.474l0.225-0.221c3.805-3.813,7.527-7.668,11.174-11.582c0.101-0.104,0.198-0.211,0.296-0.315
		c0.764,0.735,1.586,1.468,2.473,2.189C998.519,975.339,1008.343,976.969,1013.207,977.415z"/>
	<path fill="#42210B" stroke="#42210B" stroke-width="6" stroke-miterlimit="10" d="M1102.419,1104.554
		c-0.033,0.044-0.063,0.091-0.09,0.136c-0.044,0.024-0.089,0.057-0.137,0.088c-3.775,2.547-13.829,8.624-26.659,8.545
		c-1.9-0.01-3.862-0.157-5.873-0.47c-20.019-3.118-36.768-21.483-40.384-45.742c-2.158-5.231-5.269-11.265-9.82-17.402
		c-12.585-16.979-28.856-24.878-37.707-28.337c6.099-6.248,12.198-12.492,18.298-18.74l0.224-0.225
		c6.097-5.951,12.188-11.902,18.284-17.854c0.15-0.147,0.306-0.296,0.456-0.443c3.462,8.851,11.358,25.124,28.337,37.708
		c6.139,4.55,12.172,7.661,17.405,9.816c24.257,3.619,42.621,20.368,45.739,40.387
		C1112.923,1087.602,1105.342,1100.217,1102.419,1104.554z"/>
	<path fill="#42210B" stroke="#42210B" stroke-width="6" stroke-miterlimit="10" d="M1012.578,977.415l-38.153,38.153
		c-0.444-4.865-2.077-14.689-9.373-23.65c-0.69-0.853-1.395-1.645-2.102-2.379c-0.028-0.032-0.058-0.063-0.088-0.096
		c4.021-3.738,7.984-7.563,11.897-11.473l0.222-0.221c3.907-3.916,7.732-7.877,11.472-11.898c0.034,0.037,0.072,0.071,0.106,0.103
		c0.077,0.073,0.153,0.146,0.229,0.214c0.668,0.633,1.381,1.257,2.139,1.874C997.889,975.339,1007.712,976.969,1012.578,977.415z"/>
	<path fill="#42210B" stroke="#42210B" stroke-width="6" stroke-miterlimit="10" d="M1101.787,1104.554
		c-0.031,0.044-0.064,0.091-0.088,0.136c-0.044,0.024-0.09,0.057-0.137,0.088c-3.714,2.502-13.502,8.426-26.029,8.545
		c-2.096,0.02-4.271-0.123-6.504-0.47c-20.02-3.118-36.768-21.483-40.384-45.742c-2.158-5.231-5.269-11.265-9.819-17.402
		c-12.587-16.979-28.858-24.878-37.71-28.337c6.1-6.248,12.2-12.492,18.3-18.74l0.224-0.225c6.248-6.1,12.493-12.199,18.739-18.298
		c0.058,0.146,0.119,0.292,0.176,0.444c3.553,8.942,11.464,24.889,28.164,37.264c6.135,4.551,12.169,7.661,17.405,9.816
		c24.254,3.619,42.62,20.369,45.737,40.387C1112.292,1087.602,1104.712,1100.217,1101.787,1104.554z"/>
	<path fill="#42210B" stroke="#42210B" stroke-miterlimit="10" d="M1013.21,323.301c-4.866,0.444-14.691,2.076-23.653,9.372
		c-0.884,0.721-1.707,1.455-2.473,2.189c-3.736-4.018-7.562-7.98-11.472-11.895l-0.223-0.223c-3.914-3.91-7.876-7.734-11.894-11.472
		c0.734-0.765,1.467-1.589,2.188-2.475c7.296-8.961,8.929-18.785,9.372-23.652L1013.21,323.301z"/>
	<path fill="#42210B" stroke="#42210B" stroke-width="6" stroke-miterlimit="10" d="M1013.21,323.301
		c-4.866,0.444-14.691,2.076-23.653,9.372c-0.884,0.721-1.707,1.455-2.473,2.189c-3.736-4.018-7.562-7.98-11.472-11.895
		l-0.223-0.223c-3.914-3.91-7.876-7.734-11.894-11.472c0.734-0.765,1.467-1.589,2.188-2.475c7.296-8.961,8.929-18.785,9.372-23.652
		L1013.21,323.301z"/>
	<path fill="#42210B" stroke="#42210B" stroke-miterlimit="10" d="M1019.011,316.607c-6.247-6.1-12.493-12.199-18.741-18.298
		l-0.223-0.224c-6.1-6.247-12.197-12.493-18.298-18.74c8.851-3.46,25.124-11.358,37.708-28.337
		c4.551-6.138,7.66-12.172,9.816-17.405c3.621-24.258,20.37-42.622,40.389-45.741c15.582-2.427,28.196,5.153,32.533,8.076
		c0.045,0.03,0.09,0.062,0.134,0.089c0.027,0.044,0.059,0.089,0.09,0.134c2.922,4.338,10.502,16.951,8.074,32.534
		c-3.119,20.019-21.483,36.767-45.742,40.386c-5.231,2.158-11.265,5.268-17.402,9.817
		C1030.369,291.483,1022.472,307.756,1019.011,316.607"/>
	<path fill="#42210B" stroke="#42210B" stroke-width="6" stroke-miterlimit="10" d="M1019.011,316.607
		c-6.247-6.1-12.493-12.199-18.741-18.298l-0.223-0.224c-6.1-6.247-12.197-12.493-18.298-18.74
		c8.851-3.46,25.124-11.358,37.708-28.337c4.551-6.138,7.66-12.172,9.816-17.405c3.621-24.258,20.37-42.622,40.389-45.741
		c15.582-2.427,28.196,5.153,32.533,8.076c0.045,0.03,0.09,0.062,0.134,0.089c0.027,0.044,0.059,0.089,0.09,0.134
		c2.922,4.338,10.502,16.951,8.074,32.534c-3.119,20.019-21.483,36.767-45.742,40.386c-5.231,2.158-11.265,5.268-17.402,9.817
		C1030.369,291.483,1022.472,307.756,1019.011,316.607z"/>
	<path fill="#42210B" stroke="#42210B" stroke-width="6" stroke-miterlimit="10" d="M333.134,989.443
		c-0.078,0.082-0.157,0.164-0.233,0.247c-0.656,0.693-1.31,1.436-1.957,2.228c-7.295,8.961-8.926,18.785-9.371,23.65l-38.152-38.153
		c4.865-0.446,14.688-2.076,23.65-9.373c0.782-0.636,1.514-1.28,2.199-1.93c0.092-0.085,0.183-0.171,0.274-0.261
		c3.739,4.021,7.563,7.982,11.474,11.898l0.221,0.221C325.154,981.881,329.113,985.705,333.134,989.443z"/>
	<path fill="#42210B" stroke="#42210B" stroke-width="6" stroke-miterlimit="10" d="M314.88,1021.371
		c-8.852,3.459-25.124,11.357-37.708,28.337c-4.551,6.138-7.661,12.171-9.817,17.402c-3.619,24.259-20.368,42.624-40.387,45.742
		c-15.582,2.427-28.197-5.152-32.533-8.075c-0.044-0.031-0.093-0.063-0.136-0.088c-0.026-0.045-0.058-0.092-0.089-0.135
		c-2.922-4.337-10.501-16.953-8.075-32.535c3.118-20.018,21.483-36.768,45.743-40.387c5.231-2.155,11.265-5.266,17.402-9.816
		c16.979-12.584,24.878-28.857,28.336-37.708c6.248,6.099,12.493,12.198,18.74,18.298l0.225,0.225
		C302.681,1008.879,308.78,1015.123,314.88,1021.371z"/>
	<path fill="#42210B" stroke="#42210B" stroke-miterlimit="10" d="M282.787,323.301c4.867,0.444,14.691,2.076,23.652,9.372
		c0.885,0.721,1.709,1.455,2.475,2.189c3.736-4.018,7.562-7.98,11.47-11.895l0.224-0.223c3.913-3.91,7.876-7.734,11.896-11.472
		c-0.733-0.765-1.469-1.589-2.189-2.475c-7.296-8.961-8.927-18.785-9.371-23.652L282.787,323.301z"/>
	<path fill="#42210B" stroke="#42210B" stroke-width="6" stroke-miterlimit="10" d="M282.787,323.301
		c4.867,0.444,14.691,2.076,23.652,9.372c0.885,0.721,1.709,1.455,2.475,2.189c3.736-4.018,7.562-7.98,11.47-11.895l0.224-0.223
		c3.913-3.91,7.876-7.734,11.896-11.472c-0.733-0.765-1.469-1.589-2.189-2.475c-7.296-8.961-8.927-18.785-9.371-23.652
		L282.787,323.301z"/>
	<path fill="#42210B" stroke="#42210B" stroke-miterlimit="10" d="M276.986,316.607c6.248-6.1,12.493-12.199,18.74-18.298
		l0.224-0.224c6.1-6.247,12.198-12.493,18.298-18.74c-8.851-3.46-25.124-11.358-37.709-28.337
		c-4.549-6.138-7.659-12.172-9.816-17.405c-3.62-24.258-20.367-42.622-40.387-45.741c-15.583-2.427-28.197,5.153-32.534,8.076
		c-0.044,0.03-0.089,0.062-0.134,0.089c-0.026,0.044-0.059,0.089-0.09,0.134c-2.923,4.338-10.502,16.951-8.074,32.534
		c3.119,20.019,21.482,36.767,45.741,40.386c5.232,2.158,11.266,5.268,17.403,9.817
		C265.629,291.483,273.525,307.756,276.986,316.607"/>
	<path fill="#42210B" stroke="#42210B" stroke-width="6" stroke-miterlimit="10" d="M276.986,316.607
		c6.248-6.1,12.493-12.199,18.74-18.298l0.224-0.224c6.1-6.247,12.198-12.493,18.298-18.74c-8.851-3.46-25.124-11.358-37.709-28.337
		c-4.549-6.138-7.659-12.172-9.816-17.405c-3.62-24.258-20.367-42.622-40.387-45.741c-15.583-2.427-28.197,5.153-32.534,8.076
		c-0.044,0.03-0.089,0.062-0.134,0.089c-0.026,0.044-0.059,0.089-0.09,0.134c-2.923,4.338-10.502,16.951-8.074,32.534
		c3.119,20.019,21.482,36.767,45.741,40.386c5.232,2.158,11.266,5.268,17.403,9.817
		C265.629,291.483,273.525,307.756,276.986,316.607z"/>
	<path fill="#42210B" stroke="#42210B" stroke-width="6" stroke-miterlimit="10" d="M675.137,1139.859h-53.959
		c3.127-3.754,8.921-11.854,10.098-23.35c0.117-1.137,0.18-2.237,0.202-3.299c5.484,0.199,10.99,0.297,16.522,0.301h0.314
		c5.531-0.004,11.04-0.102,16.522-0.301c0.022,1.061,0.087,2.162,0.201,3.299C666.216,1128.005,672.01,1136.105,675.137,1139.859z"
		/>
	<path fill="#42210B" stroke="#42210B" stroke-width="6" stroke-miterlimit="10" d="M677.03,1275.547
		c-9.302,12.736-23.581,16.295-28.716,17.296c-0.052,0.009-0.105,0.019-0.157,0.031c-0.049-0.013-0.104-0.022-0.158-0.031
		c-5.133-1.001-19.412-4.56-28.714-17.296c-11.951-16.361-10.809-41.189,3.786-60.901c2.174-5.226,4.24-11.69,5.364-19.249
		c3.109-20.905-2.814-37.996-6.627-46.701c8.731-0.104,17.459-0.208,26.19-0.313h0.315c8.731,0.104,17.461,0.209,26.191,0.313
		c-3.812,8.706-9.734,25.797-6.626,46.701c1.124,7.559,3.189,14.023,5.364,19.249C687.839,1234.357,688.98,1259.186,677.03,1275.547
		z"/>
	<path fill="#42210B" stroke="#42210B" stroke-width="6" stroke-miterlimit="10" d="M647.686,152.645h0.156
		c-0.054,0.003-0.104,0.003-0.156,0.003V152.645z"/>
	<path fill="#42210B" stroke="#42210B" stroke-width="6" stroke-miterlimit="10" d="M647.842,8.154
		c-0.05,0.012-0.104,0.021-0.156,0.031v-0.06C647.735,8.135,647.788,8.145,647.842,8.154z"/>
	<path fill="#42210B" stroke="#42210B" stroke-miterlimit="10" d="M649.042,16.133c1.857-1.943,13.04,2.987,19.88,12.307
		c9.33,12.719,6.594,28.188,6.31,29.662c-1.691,8.79-5.332,10.249-10.099,23.667c-2.746,7.735-4.059,14.351-4.732,18.617
		c-2.993-17.311-2.75-30.917-1.893-40.39c0.699-7.73,1.853-13.229,0-21.458C655.423,24.844,647.254,18.003,649.042,16.133"/>
	<path fill="#42210B" stroke="#42210B" stroke-miterlimit="10" d="M1048.528,266.05c0.434,0.659,6.729-3.544,17.67-7.889
		c12.882-5.115,15.429-3.766,20.197-6.626c16.433-9.865,15.729-43.646,12.305-44.493c-1.926-0.476-3.077,9.88-12.937,24.298
		C1070.039,254.332,1047.75,264.866,1048.528,266.05"/>
	<path fill="#42210B" stroke="#42210B" stroke-miterlimit="10" d="M1202.201,661.435c-0.156,0.702,6.325,3.321,19.298,8.541
		c1.547,0.622,2.319,0.935,3.106,1.241c9.199,3.585,17.739,6.084,20.196,6.626c15.4,3.395,38.394-16.735,36.604-20.195
		c-1.171-2.264-11.779,4.895-32.818,6.941C1222.774,667.102,1202.559,659.848,1202.201,661.435"/>
	<path fill="#42210B" stroke="#42210B" stroke-miterlimit="10" d="M1031.173,1056.82c-1.142,0.598,2.813,11.313,7.574,20.51
		c0.672,1.3,1.359,2.627,2.283,4.184c3.999,6.732,10.661,14.78,17.278,18.852c15.022,9.24,37.354,2.635,37.552-0.947
		c0.117-2.088-7.328-2.5-25.876-10.412c-10.354-4.418-15.533-6.628-20.826-10.729
		C1036.494,1068.461,1032.384,1056.184,1031.173,1056.82"/>
	<path fill="#42210B" stroke="#42210B" stroke-miterlimit="10" d="M632.949,1205.443c-2.703,4.426-6.319,11.158-9.15,19.881
		c-3.298,10.145-7.033,21.64-3.474,33.764c4.604,15.674,19.341,25.379,21.142,23.981c1.57-1.218-8.168-9.683-10.097-25.56
		c-1.359-11.186,2.434-15.564,2.84-32.186C634.418,1216.804,633.622,1209.855,632.949,1205.443"/>
	<path fill="#42210B" stroke="#42210B" stroke-miterlimit="10" d="M248.923,1032.207c-0.375-0.445-4.85,4.094-12.621,7.888
		c-12.302,6.005-16.622,2.214-24.929,6.628c-11.532,6.127-16.326,20.406-17.04,29.978c-0.781,10.47,2.93,20.601,5.049,20.51
		c1.726-0.073,1.217-7.849,5.996-20.827c2.114-5.741,3.434-9.322,6.311-13.252c5.287-7.221,9.718-7.265,20.826-15.463
		C242.369,1040.395,249.346,1032.707,248.923,1032.207"/>
	<path fill="#42210B" stroke="#42210B" stroke-miterlimit="10" d="M14.47,647.866c-1.858-2.046,6.612-18.594,21.772-23.666
		c12.942-4.331,28.814,0.351,37.866,5.995c1.813,1.131,3.485,2.383,6.627,3.787c11.241,5.023,21.441,3.122,21.457,3.471
		c0.019,0.385-12.372,3.054-30.924,1.893c-17.67-1.105-19.756-4.36-29.978-2.84C24.678,638.978,16.107,649.67,14.47,647.866"/>
	<path fill="#42210B" stroke="#42210B" stroke-miterlimit="10" d="M201.275,201.36c-0.176-2.392,16.733-10.151,32.187-3.786
		c11.286,4.649,21.194,16.586,20.826,27.137c-0.101,2.874-0.924,4.528-0.315,8.205c1.538,9.308,9.434,14.536,9.15,14.831
		c-0.323,0.339-11.061-6.162-20.511-19.88c-6.604-9.585-5.186-11.964-10.098-16.724C220.401,199.406,201.46,203.875,201.275,201.36"
		/>
	<path fill="#42210B" stroke="#42210B" stroke-miterlimit="10" d="M986.49,334.824l-0.037,0.039
		c-3.739-4.021-7.564-7.983-11.47-11.897l-0.224-0.224c-3.913-3.907-7.877-7.73-11.897-11.471c0.006-0.006,0.013-0.012,0.016-0.019
		C884.04,237.995,779.632,191.89,664.522,187.815c-5.484-0.198-10.991-0.296-16.522-0.3h-0.315
		c-5.531,0.004-11.038,0.102-16.522,0.3c-247.934,8.776-446.233,212.539-446.233,462.613c0,32.611,3.374,64.436,9.789,95.139
		c17.583,84.176,58.029,159.955,114.552,220.544c0.092-0.084,0.183-0.17,0.274-0.26c3.739,4.021,7.563,7.98,11.473,11.898
		l0.222,0.22c3.916,3.91,7.876,7.734,11.896,11.474c-0.078,0.082-0.157,0.164-0.233,0.247
		c82.615,76.731,193.301,123.651,314.941,123.651c121.725,0,232.478-46.983,315.108-123.804c-0.028-0.031-0.058-0.063-0.088-0.095
		c4.021-3.739,7.984-7.563,11.897-11.474l0.224-0.22c3.905-3.918,7.73-7.877,11.47-11.898c0.034,0.035,0.072,0.07,0.106,0.103
		c56.446-60.563,96.84-136.283,114.406-220.387c6.416-30.703,9.79-62.526,9.79-95.139
		C1110.756,528.459,1063.582,417.508,986.49,334.824 M1058.404,672.77c-1.331,24.919-4.884,49.251-10.463,72.798
		c-1.79,7.551-3.787,15.021-5.986,22.404c-1.546,5.197-3.193,10.353-4.939,15.461c-4.416,12.924-9.458,25.56-15.089,37.867
		c-2.386,5.216-4.874,10.368-7.471,15.462c-8.199,16.102-17.428,31.592-27.603,46.385c-2.638,3.835-5.339,7.621-8.101,11.36
		c-12.413,16.804-26.077,32.625-40.851,47.333c-4.322,4.305-8.743,8.514-13.256,12.622
		c-73.056,66.554-170.193,107.13-276.805,107.13c-0.883,0-1.768-0.004-2.65-0.01c-0.811-0.004-1.621-0.013-2.434-0.021
		c-1.091-0.013-2.179-0.027-3.268-0.054c-0.48-0.007-0.961-0.019-1.439-0.032c-0.518-0.01-1.032-0.021-1.546-0.037
		c-2.455-0.067-4.906-0.155-7.35-0.263c-0.805-0.037-1.605-0.075-2.407-0.116c-0.741-0.035-1.48-0.076-2.223-0.117
		c-0.236-0.012-0.474-0.025-0.71-0.041c-0.679-0.038-1.359-0.078-2.038-0.123c-0.167-0.009-0.331-0.019-0.498-0.031
		c-0.677-0.042-1.351-0.084-2.027-0.136c-1-0.066-1.995-0.139-2.997-0.214c-0.852-0.063-1.704-0.133-2.552-0.203
		c-1.516-0.122-3.025-0.254-4.538-0.397c-0.446-0.042-0.894-0.083-1.338-0.128c-1.105-0.104-2.206-0.215-3.308-0.333
		c-0.485-0.05-0.975-0.101-1.461-0.155c-0.764-0.08-1.523-0.166-2.287-0.254c-0.761-0.086-1.518-0.174-2.274-0.266
		c-0.285-0.031-0.565-0.066-0.848-0.104c-0.675-0.079-1.346-0.163-2.018-0.248c-0.818-0.103-1.633-0.21-2.447-0.315
		c-0.087-0.014-0.176-0.027-0.264-0.035c-0.806-0.108-1.607-0.219-2.408-0.332c-0.638-0.088-1.275-0.177-1.911-0.271
		c-0.527-0.072-1.052-0.151-1.576-0.23c-0.955-0.139-1.912-0.284-2.868-0.436c-0.429-0.065-0.857-0.132-1.287-0.201
		c-0.805-0.127-1.605-0.256-2.407-0.389c-0.676-0.11-1.354-0.224-2.029-0.341c-0.417-0.069-0.836-0.142-1.253-0.215
		c-0.442-0.075-0.886-0.154-1.329-0.232c-1.035-0.18-2.066-0.366-3.098-0.559c-0.84-0.155-1.683-0.313-2.519-0.474
		c-1.116-0.211-2.23-0.429-3.342-0.653c-0.558-0.11-1.116-0.224-1.672-0.337c-0.823-0.168-1.647-0.338-2.47-0.512
		c-0.039-0.006-0.074-0.016-0.112-0.021c-0.806-0.171-1.609-0.341-2.41-0.519c-0.786-0.169-1.568-0.341-2.351-0.515
		c-0.063-0.015-0.13-0.03-0.193-0.045c-0.811-0.182-1.621-0.364-2.429-0.551c-0.044-0.01-0.086-0.02-0.13-0.028
		c-0.782-0.181-1.564-0.363-2.348-0.55c-0.918-0.217-1.833-0.438-2.749-0.662c-0.728-0.176-1.457-0.357-2.187-0.539
		c-0.621-0.155-1.243-0.31-1.861-0.471c-0.372-0.092-0.744-0.186-1.113-0.283c-0.653-0.168-1.307-0.338-1.96-0.512
		c-0.811-0.211-1.619-0.426-2.427-0.646c-0.625-0.168-1.25-0.338-1.874-0.513c-0.417-0.112-0.829-0.227-1.243-0.343
		c-0.587-0.16-1.175-0.325-1.762-0.493c-0.71-0.201-1.419-0.403-2.13-0.608c-0.239-0.068-0.481-0.139-0.722-0.211
		c-0.666-0.192-1.336-0.389-1.998-0.586c-0.729-0.217-1.458-0.434-2.183-0.654c-0.108-0.031-0.219-0.063-0.325-0.099
		c-0.774-0.233-1.55-0.472-2.32-0.712c-0.92-0.284-1.839-0.572-2.758-0.865c-0.682-0.215-1.363-0.436-2.045-0.656
		c-0.798-0.26-1.596-0.518-2.391-0.782c-0.745-0.243-1.487-0.493-2.226-0.743c-0.091-0.027-0.183-0.059-0.274-0.09
		c-0.646-0.218-1.291-0.439-1.931-0.66c-1.871-0.641-3.74-1.297-5.598-1.967c-0.581-0.207-1.158-0.415-1.736-0.627
		c-0.98-0.355-1.96-0.719-2.935-1.082c-0.496-0.187-0.991-0.372-1.486-0.559c-0.618-0.234-1.236-0.471-1.855-0.707
		c-0.464-0.176-0.928-0.357-1.392-0.537c-3.124-1.207-6.229-2.457-9.315-3.742c-0.388-0.16-0.775-0.32-1.164-0.488
		c-0.483-0.199-0.962-0.401-1.444-0.609c-0.591-0.248-1.177-0.498-1.765-0.75c-1.417-0.609-2.827-1.225-4.237-1.85
		c-1.247-0.555-2.494-1.113-3.734-1.68c-0.406-0.182-0.811-0.369-1.215-0.558c-0.507-0.231-1.013-0.464-1.521-0.7
		c-0.44-0.205-0.887-0.411-1.328-0.619c-0.574-0.271-1.149-0.539-1.723-0.811c-0.594-0.284-1.187-0.564-1.78-0.853
		c-0.672-0.321-1.344-0.646-2.013-0.974c-0.688-0.333-1.373-0.666-2.055-1.008c-0.638-0.313-1.275-0.627-1.909-0.949
		c-0.466-0.234-0.934-0.468-1.4-0.703c-0.303-0.152-0.603-0.304-0.906-0.458c-0.464-0.237-0.925-0.47-1.385-0.708
		c-3.964-2.031-7.886-4.126-11.771-6.281c-0.489-0.272-0.979-0.547-1.467-0.82c-0.619-0.344-1.237-0.691-1.853-1.045
		c-1.85-1.047-3.688-2.107-5.52-3.187c-0.426-0.247-0.849-0.495-1.271-0.751c-0.55-0.322-1.096-0.647-1.641-0.975
		c-0.457-0.272-0.915-0.547-1.37-0.828c-0.397-0.236-0.792-0.473-1.184-0.717c-0.605-0.365-1.208-0.734-1.811-1.107
		c-2.773-1.707-5.522-3.445-8.252-5.217c-0.366-0.236-0.729-0.475-1.092-0.712c-0.461-0.304-0.921-0.603-1.381-0.908
		c-0.592-0.39-1.182-0.78-1.769-1.171c-2.976-1.982-5.926-4.004-8.844-6.066c-0.442-0.309-0.881-0.621-1.32-0.934
		c-0.675-0.479-1.344-0.959-2.013-1.441c-0.574-0.41-1.146-0.824-1.714-1.24c-1.303-0.947-2.6-1.903-3.891-2.868
		c-0.587-0.435-1.173-0.874-1.757-1.315c-0.591-0.445-1.178-0.891-1.765-1.338c-3.452-2.633-6.86-5.317-10.224-8.057
		c-0.457-0.372-0.916-0.744-1.373-1.12c-0.347-0.284-0.688-0.567-1.031-0.853c-0.505-0.413-1.007-0.832-1.51-1.25
		c-0.586-0.488-1.167-0.977-1.75-1.47c-0.53-0.448-1.061-0.896-1.59-1.351c-3.109-2.647-6.176-5.34-9.199-8.078
		c-0.423-0.381-0.846-0.767-1.266-1.151c-1.441-1.313-2.868-2.636-4.288-3.97c-0.552-0.519-1.104-1.035-1.653-1.559
		c-0.417-0.396-0.833-0.792-1.25-1.193c-0.369-0.354-0.738-0.706-1.107-1.063c-1.58-1.521-3.148-3.058-4.702-4.604
		c-1.962-1.951-3.902-3.922-5.821-5.912c-0.464-0.48-0.928-0.963-1.388-1.445c-0.49-0.512-0.973-1.02-1.455-1.531
		c-0.969-1.022-1.932-2.051-2.888-3.082c-0.4-0.434-0.805-0.868-1.202-1.303c-1.028-1.122-2.051-2.245-3.066-3.375
		c-0.471-0.523-0.94-1.048-1.407-1.574c-0.467-0.523-0.935-1.051-1.398-1.58c-0.468-0.528-0.931-1.058-1.392-1.588
		c-1.29-1.477-2.569-2.967-3.834-4.462c-0.256-0.303-0.512-0.605-0.767-0.909c-0.297-0.35-0.59-0.701-0.884-1.054
		c-1.126-1.344-2.241-2.695-3.349-4.054c-0.359-0.441-0.718-0.887-1.078-1.329c-0.461-0.571-0.921-1.146-1.38-1.72
		c-0.406-0.509-0.813-1.021-1.217-1.53c-0.811-1.023-1.616-2.048-2.414-3.08c-0.803-1.032-1.597-2.067-2.386-3.106
		c-0.792-1.038-1.578-2.079-2.357-3.126c-0.392-0.524-0.779-1.047-1.168-1.572c-0.419-0.567-0.837-1.136-1.253-1.708
		c-0.309-0.419-0.615-0.843-0.921-1.266c-1.354-1.861-2.689-3.735-4.008-5.623c-0.403-0.581-0.808-1.158-1.209-1.739
		c-0.807-1.161-1.606-2.329-2.395-3.499c-0.397-0.583-0.792-1.171-1.185-1.758c-0.394-0.585-0.784-1.173-1.176-1.764
		c-0.782-1.178-1.556-2.36-2.322-3.55c-0.385-0.594-0.77-1.186-1.149-1.783c-0.381-0.596-0.76-1.192-1.138-1.788
		c-0.276-0.433-0.546-0.865-0.821-1.301c-0.48-0.764-0.959-1.53-1.433-2.3c-0.243-0.392-0.483-0.787-0.726-1.177
		c-0.502-0.814-0.997-1.632-1.49-2.45c-0.368-0.605-0.734-1.211-1.094-1.821c-0.364-0.608-0.727-1.217-1.086-1.826
		c-0.363-0.609-0.723-1.222-1.076-1.833c-0.36-0.613-0.713-1.225-1.066-1.84c-0.354-0.616-0.708-1.23-1.057-1.845
		c-0.322-0.563-0.645-1.127-0.96-1.692c-0.729-1.288-1.448-2.581-2.158-3.881c-0.685-1.244-1.36-2.493-2.032-3.746
		c-0.911-1.698-1.812-3.405-2.695-5.118c-0.423-0.811-0.84-1.622-1.253-2.44c-0.274-0.533-0.545-1.069-0.813-1.605
		c-0.239-0.474-0.477-0.947-0.713-1.423c-0.202-0.398-0.401-0.798-0.597-1.2c-0.242-0.492-0.485-0.985-0.726-1.477
		c-0.123-0.246-0.246-0.496-0.365-0.745c-0.528-1.079-1.049-2.165-1.566-3.25c-0.259-0.543-0.518-1.088-0.773-1.631
		c-0.204-0.434-0.406-0.865-0.608-1.297c-0.095-0.199-0.187-0.401-0.277-0.6c-0.214-0.458-0.427-0.917-0.639-1.379
		c-0.202-0.432-0.4-0.867-0.6-1.306c-0.532-1.168-1.06-2.341-1.583-3.515c-0.099-0.221-0.199-0.446-0.294-0.669
		c-0.233-0.518-0.461-1.039-0.688-1.56c-0.177-0.4-0.352-0.801-0.524-1.203c-0.232-0.54-0.467-1.075-0.697-1.615
		c-0.735-1.713-1.458-3.432-2.171-5.159c-0.444-1.083-0.887-2.164-1.322-3.25c-0.363-0.9-0.723-1.798-1.076-2.704
		c-0.233-0.587-0.46-1.17-0.688-1.757c-0.988-2.534-1.95-5.08-2.888-7.64c-0.177-0.487-0.353-0.969-0.526-1.455
		c-0.83-2.285-1.638-4.582-2.424-6.889c-0.196-0.575-0.391-1.148-0.583-1.726c-0.24-0.704-0.478-1.407-0.708-2.114
		c-0.157-0.474-0.315-0.95-0.47-1.426c-0.278-0.849-0.553-1.698-0.823-2.549c-0.187-0.587-0.372-1.175-0.559-1.765
		c-0.126-0.394-0.25-0.789-0.369-1.187c-0.199-0.628-0.392-1.259-0.585-1.886c-0.145-0.477-0.289-0.953-0.432-1.429
		c-0.14-0.458-0.278-0.919-0.413-1.379c-0.55-1.847-1.09-3.699-1.612-5.555c-0.304-1.065-0.601-2.135-0.891-3.206
		c-0.218-0.792-0.433-1.584-0.645-2.379c-0.494-1.85-0.977-3.708-1.444-5.567c-0.015-0.053-0.027-0.103-0.041-0.157
		c-0.217-0.868-0.436-1.735-0.647-2.606l-0.036-0.162c-0.229-0.921-0.449-1.847-0.671-2.774c-0.276-1.167-0.548-2.337-0.813-3.512
		c-0.135-0.587-0.268-1.17-0.395-1.758c-0.065-0.281-0.129-0.562-0.189-0.842c-0.186-0.837-0.365-1.672-0.546-2.509
		c-0.019-0.082-0.034-0.164-0.053-0.247c-0.186-0.88-0.372-1.76-0.556-2.644c-0.198-0.966-0.395-1.932-0.587-2.897
		c-0.186-0.928-0.365-1.854-0.546-2.784c-0.01-0.059-0.021-0.116-0.031-0.176c-0.171-0.893-0.341-1.786-0.505-2.682
		c-0.013-0.057-0.021-0.114-0.032-0.173c-0.171-0.921-0.337-1.847-0.5-2.771c-0.029-0.157-0.055-0.315-0.084-0.476
		c-0.145-0.811-0.283-1.625-0.419-2.439c-0.017-0.073-0.028-0.146-0.038-0.219c-0.164-0.956-0.321-1.915-0.477-2.875
		c-0.006-0.025-0.009-0.047-0.012-0.069c-0.154-0.956-0.307-1.913-0.451-2.869c-0.134-0.858-0.266-1.719-0.389-2.581
		c-0.037-0.245-0.076-0.492-0.109-0.741c-0.093-0.631-0.184-1.263-0.272-1.894c-0.271-1.922-0.53-3.85-0.773-5.78
		c-0.063-0.493-0.126-0.985-0.186-1.477c-0.067-0.524-0.13-1.048-0.189-1.575c-0.047-0.388-0.095-0.776-0.139-1.164
		c-0.183-1.584-0.359-3.172-0.523-4.765c-0.083-0.767-0.158-1.537-0.234-2.306c-0.063-0.613-0.12-1.225-0.18-1.841
		c-0.066-0.719-0.133-1.436-0.196-2.155c-0.088-0.978-0.17-1.959-0.251-2.941c-0.063-0.772-0.124-1.546-0.184-2.322
		c-0.057-0.746-0.11-1.493-0.164-2.242c-0.01-0.118-0.016-0.238-0.025-0.358c-0.048-0.682-0.095-1.366-0.14-2.051
		c-0.097-1.552-0.191-3.104-0.274-4.663c-0.018-0.328-0.037-0.657-0.054-0.986c-0.003-0.094-0.008-0.186-0.013-0.28
		c-0.021-0.419-0.04-0.843-0.06-1.265c-0.013-0.237-0.025-0.474-0.034-0.714c-0.035-0.669-0.063-1.34-0.089-2.012
		c-0.009-0.209-0.016-0.413-0.024-0.623c-0.028-0.662-0.054-1.324-0.072-1.987c-0.011-0.199-0.017-0.395-0.02-0.593
		c-0.019-0.484-0.034-0.969-0.047-1.456c-0.007-0.211-0.011-0.419-0.017-0.631c-0.006-0.068-0.006-0.134-0.006-0.202
		c-0.003-0.057-0.007-0.114-0.007-0.17c-0.009-0.246-0.015-0.492-0.019-0.742c-0.002-0.104-0.006-0.208-0.006-0.312
		c-0.007-0.076-0.007-0.152-0.007-0.228c-0.009-0.319-0.018-0.638-0.025-0.958c-0.003-0.166-0.005-0.33-0.01-0.497
		c-0.002-0.044-0.002-0.086-0.002-0.13c-0.007-0.325-0.013-0.653-0.017-0.979c-0.005-0.217-0.013-0.438-0.013-0.656
		c-0.003-0.123-0.006-0.25-0.008-0.373c-0.005-0.192-0.008-0.382-0.008-0.573c-0.016-0.969-0.025-1.941-0.031-2.911
		c-0.003-0.271-0.007-0.542-0.007-0.813c-0.003-0.751-0.006-1.502-0.006-2.253c0-0.688,0.003-1.38,0.006-2.067
		c0-0.108,0-0.215,0.004-0.323c0-0.161,0-0.321,0.003-0.482c-0.003-0.075-0.003-0.154,0-0.233c0-0.092,0-0.186,0.003-0.278
		c0-0.347,0.003-0.697,0.01-1.047c0.003-0.401,0.006-0.799,0.014-1.2c0-0.079,0.002-0.154,0.002-0.23
		c0.003-0.146,0.003-0.291,0.006-0.435c0-0.039,0-0.076,0.005-0.111c0-0.041,0-0.082,0.002-0.123c0-0.069,0-0.139,0.003-0.205
		c0-0.101,0.003-0.202,0.003-0.302c0.004-0.104,0.004-0.206,0.007-0.306c0-0.149,0.003-0.297,0.006-0.444
		c0.004-0.197,0.006-0.39,0.013-0.581c0.003-0.18,0.006-0.363,0.01-0.543c0.009-0.482,0.022-0.961,0.035-1.445
		c0-0.104,0.003-0.208,0.007-0.309c0.002-0.101,0.005-0.198,0.009-0.297c0-0.063,0.003-0.129,0.006-0.192
		c0-0.066,0-0.133,0.004-0.196c0.002-0.187,0.009-0.369,0.015-0.556c0.01-0.39,0.022-0.779,0.035-1.17
		c0-0.079,0.004-0.162,0.007-0.243c0.028-0.861,0.057-1.719,0.091-2.581c0.003-0.098,0.007-0.195,0.01-0.294
		c0.009-0.252,0.019-0.501,0.031-0.753c0.007-0.177,0.013-0.357,0.022-0.535c0.019-0.527,0.044-1.053,0.07-1.581
		c0.018-0.416,0.036-0.833,0.06-1.249c0.021-0.505,0.048-1.01,0.075-1.515c0.01-0.23,0.022-0.458,0.035-0.688
		c0.034-0.647,0.072-1.294,0.109-1.938c0.025-0.47,0.054-0.937,0.085-1.404c0.029-0.489,0.061-0.975,0.095-1.46
		c-0.002-0.026,0-0.048,0.004-0.07c0.019-0.29,0.038-0.581,0.057-0.867c0.016-0.253,0.035-0.509,0.054-0.761
		c0.016-0.247,0.032-0.493,0.054-0.739c0-0.028,0-0.057,0.003-0.082c0.013-0.19,0.028-0.382,0.041-0.571
		c0.022-0.291,0.042-0.579,0.063-0.868c0.013-0.174,0.028-0.347,0.042-0.517c0.019-0.271,0.041-0.543,0.063-0.814
		c0.044-0.553,0.088-1.108,0.132-1.66c0.016-0.17,0.029-0.341,0.045-0.511c0.089-1.045,0.177-2.086,0.275-3.125
		c0.037-0.425,0.078-0.852,0.118-1.274c0.023-0.211,0.042-0.422,0.061-0.634c0.019-0.214,0.04-0.426,0.063-0.637
		c0.015-0.157,0.028-0.315,0.044-0.472c0.003-0.032,0.006-0.067,0.01-0.099c0.009-0.123,0.021-0.247,0.034-0.372
		c0.017-0.168,0.035-0.338,0.051-0.509c0.075-0.723,0.148-1.442,0.227-2.164c0.004-0.025,0.007-0.054,0.01-0.085
		c0.01-0.079,0.016-0.157,0.025-0.236c0.006-0.06,0.013-0.123,0.021-0.186c0.013-0.118,0.025-0.234,0.035-0.351
		c0.028-0.258,0.054-0.514,0.085-0.769c0.058-0.514,0.114-1.029,0.174-1.54c0.054-0.47,0.107-0.938,0.164-1.404
		c0.009-0.091,0.019-0.187,0.032-0.278c0.025-0.256,0.056-0.511,0.091-0.767c0.006-0.035,0.01-0.066,0.016-0.101v-0.023
		c0.01-0.075,0.019-0.154,0.028-0.229c0.01-0.098,0.022-0.195,0.035-0.294c0.075-0.625,0.155-1.252,0.233-1.878
		c0.063-0.501,0.13-1.002,0.192-1.504c0.016-0.124,0.031-0.243,0.048-0.363c0.227-1.729,0.466-3.456,0.713-5.175
		c0.269-1.846,0.546-3.689,0.836-5.524c0.082-0.524,0.167-1.045,0.25-1.566c0.028-0.17,0.057-0.337,0.085-0.508
		c0.081-0.505,0.164-1.01,0.249-1.515c0.209-1.243,0.423-2.486,0.644-3.727c0.095-0.545,0.192-1.089,0.29-1.631
		c0.909-5.037,1.913-10.038,3.004-15.005c0.155-0.694,0.306-1.384,0.464-2.076c0.177-0.789,0.357-1.578,0.54-2.364
		c0.397-1.709,0.805-3.417,1.221-5.121c0.201-0.831,0.408-1.657,0.618-2.483c0.205-0.824,0.414-1.645,0.629-2.462
		c0.228-0.876,0.454-1.747,0.688-2.622c0.187-0.704,0.371-1.404,0.564-2.105c0.471-1.735,0.953-3.469,1.445-5.194
		c0.228-0.799,0.458-1.593,0.691-2.389c0.017-0.053,0.028-0.104,0.044-0.155c0.225-0.763,0.448-1.527,0.678-2.287
		c0.244-0.811,0.487-1.622,0.736-2.433c0.246-0.812,0.498-1.619,0.751-2.428c0.145-0.466,0.29-0.933,0.441-1.401
		c0.152-0.489,0.31-0.975,0.464-1.464c0.417-1.3,0.843-2.601,1.275-3.897c0.126-0.388,0.255-0.78,0.389-1.168
		c0.728-2.173,1.473-4.341,2.239-6.5c0.154-0.44,0.313-0.879,0.471-1.321c0.24-0.672,0.482-1.344,0.729-2.017
		c0.697-1.917,1.407-3.827,2.134-5.729c0.17-0.445,0.337-0.89,0.511-1.332c1.42-3.688,2.89-7.352,4.415-10.987
		c0.293-0.707,0.589-1.411,0.89-2.114c13.708-32.237,31.416-62.366,52.501-89.762c4.68-6.084,9.529-12.031,14.538-17.841
		c0.006-0.009,0.016-0.016,0.021-0.026c0.721-0.833,1.44-1.663,2.166-2.489c0.013-0.017,0.025-0.028,0.036-0.044
		c0.71-0.812,1.425-1.619,2.141-2.421c0.019-0.022,0.038-0.041,0.054-0.06c0.732-0.82,1.465-1.637,2.202-2.452
		c0.729-0.809,1.461-1.609,2.196-2.411c0.875-0.947,1.752-1.89,2.632-2.831c0.653-0.697,1.31-1.395,1.969-2.085
		c0.717-0.757,1.439-1.511,2.165-2.263c0.048-0.047,0.092-0.095,0.139-0.142c0.701-0.729,1.404-1.451,2.112-2.171
		c0.151-0.158,0.306-0.313,0.46-0.468c0.694-0.709,1.392-1.414,2.095-2.116c0.708-0.711,1.414-1.415,2.128-2.121
		c0.151-0.148,0.303-0.3,0.457-0.448c0.688-0.682,1.379-1.357,2.073-2.026c0.063-0.063,0.124-0.123,0.186-0.184
		c0.72-0.701,1.438-1.394,2.165-2.082c1.398-1.342,2.806-2.67,4.226-3.989c0.397-0.37,0.798-0.741,1.199-1.11
		c0.574-0.531,1.151-1.062,1.731-1.585c0.165-0.151,0.329-0.303,0.493-0.451c0.741-0.676,1.486-1.347,2.234-2.017
		c0.603-0.54,1.209-1.079,1.816-1.615c0.396-0.35,0.79-0.697,1.185-1.045c0.676-0.594,1.351-1.186,2.032-1.773
		c0.659-0.575,1.322-1.143,1.984-1.71c0.028-0.026,0.054-0.047,0.082-0.069c0.441-0.378,0.883-0.757,1.329-1.13
		c0.641-0.545,1.281-1.084,1.924-1.625c0.771-0.644,1.541-1.288,2.313-1.925c0.007-0.003,0.013-0.01,0.019-0.016
		c0.827-0.681,1.657-1.363,2.494-2.039c0.054-0.044,0.107-0.088,0.16-0.128c0.779-0.635,1.563-1.266,2.348-1.894
		c0.085-0.069,0.174-0.139,0.262-0.208c0.809-0.647,1.616-1.287,2.427-1.925c0.028-0.02,0.058-0.042,0.082-0.063
		c0.792-0.625,1.587-1.244,2.385-1.858c0.209-0.162,0.414-0.322,0.622-0.48c0.591-0.458,1.184-0.908,1.776-1.36
		c1.739-1.328,3.487-2.638,5.249-3.935c0.33-0.245,0.661-0.489,0.996-0.732c0.764-0.562,1.53-1.121,2.301-1.672
		c0.805-0.584,1.611-1.162,2.42-1.735c0.151-0.108,0.303-0.218,0.454-0.322c0.754-0.537,1.509-1.066,2.267-1.596
		c0.24-0.168,0.482-0.339,0.726-0.506c0.772-0.543,1.549-1.075,2.329-1.608c0.315-0.215,0.627-0.43,0.942-0.647
		c0.275-0.187,0.55-0.373,0.824-0.559c0.331-0.224,0.666-0.448,0.996-0.672c1.847-1.246,3.705-2.477,5.576-3.692
		c0.332-0.217,0.667-0.433,1-0.65c1.588-1.028,3.185-2.044,4.79-3.048c0.424-0.269,0.847-0.533,1.27-0.792
		c0.946-0.59,1.896-1.177,2.85-1.758c0.476-0.29,0.952-0.58,1.433-0.871c1.511-0.915,3.028-1.82,4.557-2.717
		c0.883-0.52,1.766-1.035,2.653-1.546c0.486-0.281,0.969-0.559,1.455-0.836c0.968-0.555,1.943-1.108,2.919-1.654
		c0.356-0.202,0.713-0.401,1.069-0.6c1.316-0.735,2.634-1.46,3.963-2.18c0.701-0.381,1.404-0.76,2.108-1.136
		c0.073-0.041,0.146-0.08,0.219-0.116c0.671-0.363,1.343-0.72,2.019-1.073c0.604-0.319,1.209-0.639,1.813-0.95
		c2.815-1.471,5.649-2.907,8.502-4.308c0.379-0.189,0.761-0.375,1.142-0.562c0.506-0.246,1.011-0.492,1.515-0.735
		c0.506-0.242,1.011-0.486,1.519-0.729c0.509-0.243,1.013-0.483,1.521-0.723c0.508-0.243,1.016-0.479,1.527-0.719
		c0.507-0.237,1.015-0.474,1.526-0.71c0.382-0.176,0.768-0.355,1.152-0.533c0.577-0.265,1.158-0.527,1.736-0.79
		c0.901-0.41,1.808-0.817,2.717-1.222c0.76-0.34,1.523-0.675,2.287-1.01c0.448-0.195,0.899-0.391,1.351-0.586
		c0.518-0.227,1.035-0.448,1.552-0.669c3.766-1.613,7.561-3.171,11.383-4.673c0.64-0.252,1.283-0.504,1.931-0.755
		c0.779-0.302,1.563-0.602,2.345-0.898c0.013-0.006,0.026-0.01,0.038-0.016c0.718-0.271,1.436-0.543,2.155-0.811
		c0.114-0.042,0.227-0.086,0.341-0.13c0.483-0.179,0.966-0.356,1.448-0.533c0.274-0.102,0.553-0.206,0.827-0.303
		c0.533-0.196,1.063-0.388,1.597-0.581c0.495-0.18,0.994-0.359,1.489-0.537c0.571-0.202,1.143-0.403,1.714-0.605
		c42.703-15.024,88.634-23.193,136.472-23.193s93.769,8.169,136.473,23.193c68.446,24.073,128.601,65.749,175.028,119.594
		c36.022,41.769,63.783,90.863,80.748,144.74c0.952,3.02,1.868,6.053,2.748,9.103c6.014,20.77,10.432,42.221,13.115,64.205
		c2.016,16.494,3.05,33.291,3.05,50.328C1059.004,657.923,1058.803,665.373,1058.404,672.77"/>
	<path fill="#42210B" stroke="#42210B" stroke-miterlimit="10" d="M296.581,1002.631c6.1,6.248,12.199,12.492,18.299,18.739
		c-8.852,3.46-25.124,11.356-37.708,28.338c-4.551,6.137-7.661,12.169-9.817,17.402c-3.619,24.259-20.368,42.624-40.387,45.741
		c-15.582,2.428-28.197-5.152-32.533-8.074c-0.044-0.031-0.093-0.063-0.136-0.088c-0.026-0.045-0.058-0.092-0.089-0.136
		c-2.922-4.337-10.501-16.952-8.075-32.534c3.118-20.019,21.483-36.768,45.743-40.387c5.231-2.155,11.264-5.267,17.402-9.816
		c16.979-12.584,24.878-28.857,28.336-37.708c6.248,6.099,12.493,12.198,18.74,18.298L296.581,1002.631z"/>
	<path fill="#42210B" stroke="#42210B" stroke-width="6" stroke-miterlimit="10" d="M296.581,1002.631
		c6.1,6.248,12.199,12.492,18.299,18.739c-8.852,3.46-25.124,11.356-37.708,28.338c-4.551,6.137-7.661,12.169-9.817,17.402
		c-3.619,24.259-20.368,42.624-40.387,45.741c-15.582,2.428-28.197-5.152-32.533-8.074c-0.044-0.031-0.093-0.063-0.136-0.088
		c-0.026-0.045-0.058-0.092-0.089-0.136c-2.922-4.337-10.501-16.952-8.075-32.534c3.118-20.019,21.483-36.768,45.743-40.387
		c5.231-2.155,11.264-5.267,17.402-9.816c16.979-12.584,24.878-28.857,28.336-37.708c6.248,6.099,12.493,12.198,18.74,18.298
		L296.581,1002.631z"/>
	<path fill="#42210B" stroke="#42210B" stroke-miterlimit="10" d="M675.137,1139.859h-53.959c3.127-3.754,8.921-11.854,10.098-23.35
		c0.117-1.137,0.18-2.237,0.202-3.299c5.484,0.199,10.99,0.297,16.522,0.301h0.314c5.531-0.004,11.04-0.102,16.522-0.301
		c0.022,1.061,0.087,2.162,0.201,3.299C666.216,1128.005,672.01,1136.105,675.137,1139.859"/>
	<path fill="#42210B" stroke="#42210B" stroke-width="6" stroke-miterlimit="10" d="M675.137,1139.859h-53.959
		c3.127-3.754,8.921-11.854,10.098-23.35c0.117-1.137,0.18-2.237,0.202-3.299c5.484,0.199,10.99,0.297,16.522,0.301h0.314
		c5.531-0.004,11.04-0.102,16.522-0.301c0.022,1.061,0.087,2.162,0.201,3.299C666.216,1128.005,672.01,1136.105,675.137,1139.859z"
		/>
	<path fill="#42210B" stroke="#42210B" stroke-miterlimit="10" d="M673.242,1214.646c14.597,19.712,15.738,44.54,3.788,60.901
		c-9.302,12.736-23.581,16.295-28.716,17.296c-0.052,0.009-0.105,0.019-0.157,0.031c-0.049-0.013-0.104-0.022-0.158-0.031
		c-5.133-1.001-19.412-4.56-28.714-17.296c-11.951-16.361-10.809-41.189,3.786-60.901c2.174-5.226,4.24-11.69,5.364-19.249
		c3.109-20.905-2.814-37.996-6.627-46.701c8.731-0.104,17.459-0.208,26.19-0.313h0.315c8.731,0.104,17.461,0.209,26.191,0.313
		c-3.812,8.706-9.734,25.797-6.626,46.701C669.004,1202.954,671.068,1209.42,673.242,1214.646"/>
	<path fill="#42210B" stroke="#42210B" stroke-width="6" stroke-miterlimit="10" d="M673.242,1214.646
		c14.597,19.712,15.738,44.54,3.788,60.901c-9.302,12.736-23.581,16.295-28.716,17.296c-0.052,0.009-0.105,0.019-0.157,0.031
		c-0.049-0.013-0.104-0.022-0.158-0.031c-5.133-1.001-19.412-4.56-28.714-17.296c-11.951-16.361-10.809-41.189,3.786-60.901
		c2.174-5.226,4.24-11.69,5.364-19.249c3.109-20.905-2.814-37.996-6.627-46.701c8.731-0.104,17.459-0.208,26.19-0.313h0.315
		c8.731,0.104,17.461,0.209,26.191,0.313c-3.812,8.706-9.734,25.797-6.626,46.701
		C669.004,1202.954,671.068,1209.42,673.242,1214.646z"/>
	<path fill="#42210B" stroke="#42210B" stroke-miterlimit="10" d="M321.238,977.971c3.916,3.91,7.876,7.734,11.896,11.473
		c-0.078,0.082-0.157,0.164-0.233,0.247c-0.655,0.693-1.309,1.436-1.956,2.228c-7.295,8.961-8.927,18.785-9.371,23.65
		l-38.153-38.153c4.865-0.446,14.688-2.076,23.65-9.373c0.782-0.636,1.515-1.28,2.199-1.93c0.092-0.085,0.183-0.171,0.274-0.261
		c3.739,4.021,7.563,7.982,11.474,11.898L321.238,977.971z"/>
	<path fill="#42210B" stroke="#42210B" stroke-width="6" stroke-miterlimit="10" d="M321.238,977.971
		c3.916,3.91,7.876,7.734,11.896,11.473c-0.078,0.082-0.157,0.164-0.233,0.247c-0.655,0.693-1.309,1.436-1.956,2.228
		c-7.295,8.961-8.927,18.785-9.371,23.65l-38.153-38.153c4.865-0.446,14.688-2.076,23.65-9.373c0.782-0.636,1.515-1.28,2.199-1.93
		c0.092-0.085,0.183-0.171,0.274-0.261c3.739,4.021,7.563,7.982,11.474,11.898L321.238,977.971z"/>
	<path fill="#42210B" stroke="#42210B" stroke-miterlimit="10" d="M1013.207,977.415l-38.151,38.153
		c-0.017-0.186-0.035-0.379-0.054-0.577l-0.577,0.577c-0.444-4.865-2.077-14.689-9.373-23.65c-0.69-0.853-1.395-1.645-2.102-2.379
		c-0.028-0.032-0.058-0.063-0.088-0.096c4.021-3.738,7.984-7.563,11.897-11.473l0.222-0.221c3.907-3.916,7.732-7.877,11.472-11.898
		c0.034,0.037,0.072,0.071,0.106,0.103c0.077,0.073,0.153,0.146,0.229,0.214c0.1-0.104,0.197-0.211,0.295-0.316
		c0.764,0.736,1.586,1.469,2.473,2.19C998.519,975.339,1008.343,976.969,1013.207,977.415"/>
	<path fill="#42210B" stroke="#42210B" stroke-width="6" stroke-miterlimit="10" d="M1013.207,977.415l-38.151,38.153
		c-0.017-0.186-0.035-0.379-0.054-0.577l-0.577,0.577c-0.444-4.865-2.077-14.689-9.373-23.65c-0.69-0.853-1.395-1.645-2.102-2.379
		c-0.028-0.032-0.058-0.063-0.088-0.096c4.021-3.738,7.984-7.563,11.897-11.473l0.222-0.221c3.907-3.916,7.732-7.877,11.472-11.898
		c0.034,0.037,0.072,0.071,0.106,0.103c0.077,0.073,0.153,0.146,0.229,0.214c0.1-0.104,0.197-0.211,0.295-0.316
		c0.764,0.736,1.586,1.469,2.473,2.19C998.519,975.339,1008.343,976.969,1013.207,977.415z"/>
	<path fill="#42210B" stroke="#42210B" stroke-miterlimit="10" d="M1102.419,1104.554c-0.033,0.044-0.063,0.091-0.09,0.136
		c-0.044,0.024-0.089,0.057-0.137,0.088c-3.775,2.547-13.829,8.624-26.659,8.545c-2.096,0.02-4.271-0.123-6.504-0.47
		c-20.02-3.118-36.768-21.483-40.385-45.742c-2.157-5.231-5.27-11.265-9.819-17.402c-12.586-16.979-28.857-24.878-37.709-28.337
		c6.1-6.248,12.2-12.492,18.3-18.74l0.224-0.225c6.248-6.1,12.493-12.199,18.739-18.298c0.058,0.146,0.119,0.292,0.176,0.444
		c0.15-0.147,0.306-0.297,0.456-0.444c3.462,8.851,11.358,25.124,28.337,37.708c6.139,4.551,12.172,7.661,17.405,9.816
		c24.257,3.619,42.621,20.369,45.739,40.387C1112.923,1087.602,1105.342,1100.217,1102.419,1104.554"/>
	<path fill="#42210B" stroke="#42210B" stroke-width="6" stroke-miterlimit="10" d="M1102.419,1104.554
		c-0.033,0.044-0.063,0.091-0.09,0.136c-0.044,0.024-0.089,0.057-0.137,0.088c-3.775,2.547-13.829,8.624-26.659,8.545
		c-2.096,0.02-4.271-0.123-6.504-0.47c-20.02-3.118-36.768-21.483-40.385-45.742c-2.157-5.231-5.27-11.265-9.819-17.402
		c-12.586-16.979-28.857-24.878-37.709-28.337c6.1-6.248,12.2-12.492,18.3-18.74l0.224-0.225c6.248-6.1,12.493-12.199,18.739-18.298
		c0.058,0.146,0.119,0.292,0.176,0.444c0.15-0.147,0.306-0.297,0.456-0.444c3.462,8.851,11.358,25.124,28.337,37.708
		c6.139,4.551,12.172,7.661,17.405,9.816c24.257,3.619,42.621,20.369,45.739,40.387
		C1112.923,1087.602,1105.342,1100.217,1102.419,1104.554z"/>
	<g>
		<path fill="#B9EDDB" d="M649.104,16.172c1.857-1.943,13.04,2.987,19.879,12.307c9.332,12.718,6.596,28.187,6.313,29.662
			c-1.693,8.79-5.333,10.249-10.098,23.666c-2.749,7.736-4.062,14.351-4.734,18.618c-2.994-17.312-2.751-30.917-1.894-40.391
			c0.699-7.729,1.853-13.229,0-21.457C655.485,24.882,647.317,18.042,649.104,16.172"/>
		<path fill="#B9EDDB" d="M1048.592,266.088c0.431,0.659,6.729-3.544,17.67-7.889c12.881-5.113,15.429-3.765,20.195-6.626
			c16.434-9.865,15.73-43.647,12.307-44.493c-1.924-0.476-3.078,9.879-12.938,24.298
			C1070.102,254.371,1047.813,264.905,1048.592,266.088"/>
		<path fill="#B9EDDB" d="M1202.264,661.473c-0.157,0.702,6.326,3.322,19.298,8.542c1.547,0.622,2.321,0.933,3.106,1.239
			c9.201,3.583,17.739,6.085,20.196,6.626c15.401,3.396,38.394-16.735,36.604-20.195c-1.171-2.264-11.778,4.895-32.818,6.942
			C1222.838,667.141,1202.623,659.886,1202.264,661.473"/>
		<path fill="#B9EDDB" d="M1031.236,1056.857c-1.143,0.6,2.813,11.314,7.573,20.512c0.673,1.299,1.358,2.625,2.283,4.184
			c3.999,6.732,10.662,14.779,17.28,18.852c15.021,9.238,37.352,2.634,37.551-0.947c0.116-2.089-7.329-2.5-25.875-10.412
			c-10.356-4.42-15.535-6.629-20.826-10.729C1036.557,1068.498,1032.448,1056.222,1031.236,1056.857"/>
		<path fill="#B9EDDB" d="M633.012,1205.482c-2.703,4.425-6.316,11.157-9.15,19.879c-3.297,10.145-7.032,21.641-3.471,33.765
			c4.602,15.675,19.338,25.378,21.141,23.981c1.568-1.215-8.17-9.684-10.098-25.56c-1.36-11.186,2.433-15.563,2.84-32.187
			C634.482,1216.843,633.685,1209.895,633.012,1205.482"/>
		<path fill="#B9EDDB" d="M248.986,1032.244c-0.375-0.444-4.85,4.096-12.622,7.89c-12.301,6.005-16.621,2.212-24.929,6.626
			c-11.531,6.127-16.326,20.408-17.039,29.978c-0.781,10.472,2.929,20.602,5.048,20.511c1.726-0.074,1.217-7.85,5.996-20.826
			c2.114-5.741,3.434-9.322,6.312-13.252c5.286-7.223,9.718-7.266,20.826-15.464
			C242.432,1040.434,249.408,1032.746,248.986,1032.244"/>
		<path fill="#B9EDDB" d="M14.532,647.905c-1.858-2.046,6.612-18.594,21.773-23.667c12.941-4.331,28.813,0.35,37.866,5.995
			c1.813,1.131,3.484,2.383,6.626,3.788c11.242,5.023,21.44,3.122,21.458,3.47c0.019,0.385-12.372,3.054-30.924,1.894
			c-17.67-1.105-19.757-4.36-29.978-2.84C24.741,639.016,16.171,649.708,14.532,647.905"/>
		<path fill="#B9EDDB" d="M201.338,201.4c-0.176-2.394,16.732-10.153,32.187-3.787c11.287,4.65,21.194,16.585,20.826,27.138
			c-0.1,2.873-0.923,4.528-0.315,8.204c1.538,9.309,9.434,14.536,9.15,14.832c-0.323,0.339-11.06-6.161-20.51-19.879
			c-6.604-9.587-5.187-11.965-10.098-16.725C220.464,199.444,201.522,203.914,201.338,201.4"/>
	</g>
</g>
</svg>
